<svg width="1291" height="600" viewBox="0 0 1291 600" fill="none" xmlns="http://www.w3.org/2000/svg">
<g clip-path="url(#clip0)">
<path d="M895.5 189C891 114 846 45 756 45C693 45 639 85.5 619.5 144C600 87 546 45 483 45C415.5 45 355.5 94.5 342 160.5C321 270 396 379.5 466.5 456C499.5 490.5 535.5 522 574.5 550.5C577.5 553.5 621 586.5 625.5 583.5C730.5 504 831 402 879 277.5C891 250.5 897 219 895.5 189Z" fill="#D7EFF6"/>
<path d="M649.5 573C642 573 630 565.5 595.5 538.5L592.5 535.5C552 505.5 514.5 474 483 439.5C412.5 364.5 333 250.5 355.5 135C369 63 435 10.5 507 10.5C564 10.5 616.5 42 643.5 91.5C670.5 42 721.5 10.5 780 10.5C885 10.5 927 93 931.5 165C933 196.5 928.5 229.5 916.5 259.5C873 370.5 789 472.5 658.5 570C654 571.5 652.5 573 649.5 573ZM507 33C445.5 33 390 79.5 378 139.5C357 246 433.5 354 499.5 424.5C531 457.5 567 489 606 517.5L609 520.5C631.5 538.5 642 544.5 648 547.5C771 453 853.5 354 894 249C904.5 222 909 193.5 907.5 163.5C904.5 99 868.5 31.5 778.5 31.5C721.5 31.5 670.5 67.5 652.5 121.5C651 126 646.5 129 642 129C637.5 129 633 126 631.5 121.5C615 69 564 33 507 33Z" fill="#0074A2"/>
<path fill-rule="evenodd" clip-rule="evenodd" d="M559.5 389C596.779 389 627 358.779 627 321.5C627 284.221 596.779 254 559.5 254C522.221 254 492 284.221 492 321.5C492 358.779 522.221 389 559.5 389Z" fill="#B4E1E4"/>
<path d="M589.275 312.05C582.862 311.862 576.412 311.787 570 311.75C570 305.337 569.962 298.887 569.775 292.475L569.475 281.525C569.287 277.887 569.175 274.212 568.912 270.575H565.837C565.575 274.212 565.462 277.887 565.275 281.525L564.975 292.475C564.9 295.475 564.862 298.512 564.825 301.512C563.625 298.737 562.462 295.962 561.225 293.225L556.762 283.25C555.187 279.95 553.687 276.612 552.075 273.35L549.225 274.55C550.387 278 551.662 281.412 552.9 284.862L556.8 295.1C557.887 297.912 559.012 300.725 560.137 303.5C558 301.4 555.825 299.3 553.65 297.2L545.7 289.662C543 287.225 540.337 284.712 537.562 282.312L535.387 284.487C537.787 287.262 540.3 289.887 542.737 292.625L550.275 300.575C552.337 302.75 554.437 304.925 556.575 307.062C553.762 305.937 550.987 304.812 548.175 303.725L537.937 299.825C534.487 298.587 531.075 297.312 527.625 296.15L526.425 299C529.687 300.65 533.025 302.112 536.325 303.687L546.3 308.15C549.037 309.387 551.812 310.55 554.587 311.75C551.587 311.787 548.55 311.825 545.55 311.9L534.6 312.2C530.962 312.387 527.287 312.5 523.65 312.762V315.837C527.287 316.1 530.962 316.212 534.6 316.4L545.55 316.7C551.962 316.887 558.412 316.887 564.825 316.925C564.862 323.337 564.9 329.787 565.125 336.2L565.462 347.15C565.65 350.787 565.762 354.462 566.025 358.1H568.837C569.1 354.462 569.212 350.787 569.4 347.15L569.737 336.2C569.85 333.125 569.887 330.012 569.925 326.937C571.162 329.787 572.362 332.6 573.637 335.412L578.137 345.387C579.712 348.687 581.212 352.025 582.862 355.287L585.45 354.2C584.287 350.712 583.012 347.3 581.812 343.85L577.95 333.612C576.862 330.725 575.737 327.837 574.575 324.987C576.787 327.125 579 329.3 581.25 331.4L589.237 338.9C591.937 341.337 594.6 343.85 597.375 346.212L599.362 344.225C596.962 341.45 594.487 338.787 592.05 336.087L584.55 328.1C582.45 325.85 580.275 323.637 578.137 321.425C581.025 322.55 583.875 323.712 586.762 324.8L597 328.662C600.45 329.862 603.862 331.175 607.35 332.3L608.437 329.712C605.175 328.062 601.837 326.562 598.537 324.987L588.562 320.487C585.75 319.212 582.9 317.975 580.087 316.775C583.162 316.737 586.275 316.7 589.35 316.587L600.3 316.25C603.937 316.062 607.612 315.95 611.25 315.687V312.875C607.612 312.612 603.937 312.5 600.3 312.312L589.275 312.05Z" fill="#0074A3"/>
<path d="M567.375 242.75C527.888 242.75 495.75 274.888 495.75 314.375C495.75 353.863 527.888 386 567.375 386C606.863 386 639 353.863 639 314.375C639.038 274.888 606.9 242.75 567.375 242.75ZM567.375 379.325C531.563 379.325 502.425 350.188 502.425 314.375C502.425 278.563 531.563 249.425 567.375 249.425C603.188 249.425 632.325 278.563 632.325 314.375C632.325 350.188 603.188 379.325 567.375 379.325Z" fill="#0074A3"/>
<path d="M813.929 313.923C813.929 355.205 780.466 388.668 739.183 388.668C697.904 388.668 664.438 355.205 664.438 313.923C664.438 272.643 697.904 239.177 739.183 239.177C780.466 239.177 813.929 272.643 813.929 313.923Z" fill="#173361"/>
<path d="M740.441 284.837L759.784 332.577L730.567 309.563L740.441 284.837V284.837ZM774.803 343.575L745.05 271.972C744.201 269.907 742.503 268.814 740.441 268.814C738.376 268.814 736.554 269.907 735.705 271.972L703.049 350.511H714.22L727.147 318.129L765.725 349.295C767.276 350.549 768.396 351.117 769.851 351.117C772.765 351.117 775.313 348.932 775.313 345.778C775.313 345.265 775.132 344.45 774.803 343.574L774.803 343.575Z" fill="white"/>
</g>
<path d="M15.246 133.332C7.506 133.332 2.052 138.876 2.052 146.4C2.052 153.924 7.506 159.468 15.246 159.468C19.656 159.468 23.436 157.524 25.578 154.374L22.266 151.944C20.7 154.212 18.234 155.562 15.246 155.562C10.098 155.562 6.318 151.836 6.318 146.4C6.318 140.964 10.098 137.238 15.246 137.238C18.252 137.238 20.754 138.642 22.284 140.874L25.686 138.606C23.706 135.33 19.728 133.332 15.246 133.332ZM38.1909 141.306C32.8629 141.306 28.9209 145.212 28.9209 150.378C28.9209 155.544 32.8629 159.45 38.1909 159.45C43.5189 159.45 47.4789 155.544 47.4789 150.378C47.4789 145.212 43.5189 141.306 38.1909 141.306ZM38.1909 144.852C41.2689 144.852 43.6089 147.12 43.6089 150.378C43.6089 153.636 41.2689 155.904 38.1909 155.904C35.1129 155.904 32.7909 153.636 32.7909 150.378C32.7909 147.12 35.1129 144.852 38.1909 144.852ZM61.1716 141.306C59.4076 141.306 57.2656 141.828 55.8796 143.862V141.756H52.1356V159H55.9156V149.442C55.9156 146.49 57.9496 144.888 60.3796 144.888C62.8996 144.888 64.3936 146.508 64.3936 149.406V159H68.1736V148.164C68.1736 144.132 65.2756 141.306 61.1716 141.306ZM84.9673 141.756H79.0633V138.84C79.0633 137.13 79.8553 136.176 81.3133 136.176C82.4473 136.176 83.6533 136.59 84.5353 137.094L85.8673 133.926C84.5893 133.17 83.0773 132.63 81.0613 132.63C77.0293 132.63 75.2833 135.384 75.2833 138.84V141.756H71.8273V145.176H75.2833V159H79.0633V145.176H84.9673V141.756ZM92.8648 133.08H89.0848V159H92.8648V133.08ZM114.557 141.756H110.777V151.35C110.777 154.68 108.923 155.904 106.565 155.904C104.207 155.904 102.353 154.68 102.353 151.35V141.756H98.5728V151.692C98.5728 157.182 102.515 159.45 106.565 159.45C110.597 159.45 114.557 157.182 114.557 151.692V141.756ZM127.612 141.306C122.536 141.306 119.026 144.978 119.026 150.378C119.026 155.85 122.68 159.45 127.846 159.45C130.456 159.45 132.832 158.82 134.938 157.02L133.066 154.338C131.644 155.472 129.808 156.156 128.08 156.156C125.632 156.156 123.454 154.86 122.95 151.764H135.694C135.73 151.332 135.766 150.846 135.766 150.36C135.748 144.978 132.436 141.306 127.612 141.306ZM127.54 144.654C129.934 144.654 131.5 146.22 131.914 148.902H122.968C123.364 146.382 124.858 144.654 127.54 144.654ZM149.449 141.306C147.685 141.306 145.543 141.828 144.157 143.862V141.756H140.413V159H144.193V149.442C144.193 146.49 146.227 144.888 148.657 144.888C151.177 144.888 152.671 146.508 152.671 149.406V159H156.451V148.164C156.451 144.132 153.553 141.306 149.449 141.306ZM173.753 141.756H167.147V136.536H163.367V141.756H159.929V145.176H163.367V152.754C163.367 157.344 165.653 159.45 169.559 159.45C171.719 159.45 173.465 158.676 174.851 157.74L173.357 154.734C172.331 155.382 171.053 155.904 169.883 155.904C168.371 155.904 167.147 155.004 167.147 152.682V145.176H173.753V141.756ZM188.518 133.8V159H192.586V148.398H194.638L202.666 159H207.706L199.408 148.398C204.538 148.218 207.814 145.374 207.814 141.09C207.814 136.392 204.682 133.8 198.886 133.8H188.518ZM198.778 137.616C201.964 137.616 203.584 138.696 203.584 141.09C203.584 143.52 202.054 144.708 198.778 144.708H192.586V137.616H198.778ZM213.197 133.8V159H223.547C229.289 159 232.979 156.822 232.979 151.8C232.979 148.902 230.909 146.724 228.515 146.022C230.729 145.41 232.403 143.25 232.403 140.658C232.403 135.654 228.353 133.8 222.971 133.8H213.197ZM223.367 148.2C226.571 148.2 228.713 148.812 228.713 151.656C228.713 154.572 226.571 155.184 223.367 155.184H217.265V148.2H223.367ZM222.809 137.616C225.635 137.616 228.137 138.066 228.137 140.964C228.137 143.97 225.671 144.402 222.845 144.402H217.265V137.616H222.809ZM250.414 133.8H245.338L235.384 159H239.614L242.098 152.574H253.51L255.994 159H260.368L250.414 133.8ZM247.804 137.85L252.016 148.722H243.592L247.804 137.85ZM275.437 133.332C267.697 133.332 262.243 138.876 262.243 146.4C262.243 153.924 267.697 159.468 275.437 159.468C279.847 159.468 283.627 157.524 285.769 154.374L282.457 151.944C280.891 154.212 278.425 155.562 275.437 155.562C270.289 155.562 266.509 151.836 266.509 146.4C266.509 140.964 270.289 137.238 275.437 137.238C278.443 137.238 280.945 138.642 282.475 140.874L285.877 138.606C283.897 135.33 279.919 133.332 275.437 133.332Z" fill="#173361"/>
<path d="M86.06 527.8H65.684V531.652H73.838V553H77.906V531.652H86.06V527.8ZM108.165 549.148H94.2146V527.8H90.1466V553H108.165V549.148ZM130.836 530.086C128.298 528.394 125.4 527.368 121.728 527.368C116.274 527.368 111.792 530.176 111.792 535.234C111.792 539.914 115.518 541.678 119.262 542.2L121.224 542.47C124.914 542.974 126.894 543.892 126.894 545.872C126.894 548.194 124.302 549.598 121.008 549.598C118.092 549.598 114.834 548.41 113.106 546.826L110.892 550.066C113.502 552.316 117.606 553.45 121.026 553.45C126.48 553.45 131.124 550.642 131.124 545.512C131.124 540.832 127.092 539.14 123.006 538.582L121.26 538.348C117.984 537.88 116.022 537.07 116.022 534.982C116.022 532.678 118.326 531.22 121.692 531.22C124.248 531.22 126.624 532.012 128.766 533.38L130.836 530.086ZM153.167 535.306C148.091 535.306 144.581 538.978 144.581 544.378C144.581 549.85 148.235 553.45 153.401 553.45C156.011 553.45 158.387 552.82 160.493 551.02L158.621 548.338C157.199 549.472 155.363 550.156 153.635 550.156C151.187 550.156 149.009 548.86 148.505 545.764H161.249C161.285 545.332 161.321 544.846 161.321 544.36C161.303 538.978 157.991 535.306 153.167 535.306ZM153.095 538.654C155.489 538.654 157.055 540.22 157.469 542.902H148.523C148.919 540.382 150.413 538.654 153.095 538.654ZM181.542 535.756H177.546L172.452 549.094L167.358 535.756H163.254L170.184 553H174.648L181.542 535.756ZM192.085 535.306C187.009 535.306 183.499 538.978 183.499 544.378C183.499 549.85 187.153 553.45 192.319 553.45C194.929 553.45 197.305 552.82 199.411 551.02L197.539 548.338C196.117 549.472 194.281 550.156 192.553 550.156C190.105 550.156 187.927 548.86 187.423 545.764H200.167C200.203 545.332 200.239 544.846 200.239 544.36C200.221 538.978 196.909 535.306 192.085 535.306ZM192.013 538.654C194.407 538.654 195.973 540.22 196.387 542.902H187.441C187.837 540.382 189.331 538.654 192.013 538.654ZM213.616 535.306C211.51 535.306 209.746 536.062 208.612 537.7V535.756H204.886V553H208.648V543.514C208.648 540.58 210.358 538.888 212.752 538.888C213.67 538.888 214.822 539.104 215.614 539.518L216.514 535.792C215.65 535.45 214.768 535.306 213.616 535.306ZM237.864 535.756H233.724L228.378 545.656L222.834 535.756H218.604L226.254 549.454L220.08 560.308H224.256L237.864 535.756ZM255.634 535.756H251.368L247.12 548.86L243.07 535.756H239.056L244.762 553H249.19L253.456 540.004L257.722 553H262.222L267.928 535.756H264.004L259.936 548.932L255.634 535.756ZM275.287 527.08H271.507V553H275.287V543.442C275.287 540.49 277.321 538.888 279.751 538.888C282.271 538.888 283.765 540.508 283.765 543.406V553H287.545V542.164C287.545 538.132 284.647 535.306 280.543 535.306C278.797 535.306 276.673 535.828 275.287 537.808V527.08ZM300.612 535.306C295.536 535.306 292.026 538.978 292.026 544.378C292.026 549.85 295.68 553.45 300.846 553.45C303.456 553.45 305.832 552.82 307.938 551.02L306.066 548.338C304.644 549.472 302.808 550.156 301.08 550.156C298.632 550.156 296.454 548.86 295.95 545.764H308.694C308.73 545.332 308.766 544.846 308.766 544.36C308.748 538.978 305.436 535.306 300.612 535.306ZM300.54 538.654C302.934 538.654 304.5 540.22 304.914 542.902H295.968C296.364 540.382 297.858 538.654 300.54 538.654ZM322.143 535.306C320.037 535.306 318.273 536.062 317.139 537.7V535.756H313.413V553H317.175V543.514C317.175 540.58 318.885 538.888 321.279 538.888C322.197 538.888 323.349 539.104 324.141 539.518L325.041 535.792C324.177 535.45 323.295 535.306 322.143 535.306ZM335.523 535.306C330.447 535.306 326.937 538.978 326.937 544.378C326.937 549.85 330.591 553.45 335.757 553.45C338.367 553.45 340.743 552.82 342.849 551.02L340.977 548.338C339.555 549.472 337.719 550.156 335.991 550.156C333.543 550.156 331.365 548.86 330.861 545.764H343.605C343.641 545.332 343.677 544.846 343.677 544.36C343.659 538.978 340.347 535.306 335.523 535.306ZM335.451 538.654C337.845 538.654 339.411 540.22 339.825 542.902H330.879C331.275 540.382 332.769 538.654 335.451 538.654Z" fill="#173361"/>
<path d="M926.296 481.8H907.18V485.652H920.896L907.144 503.85V507H926.296V503.148H912.544L926.296 484.95V481.8ZM938.275 489.306C933.199 489.306 929.689 492.978 929.689 498.378C929.689 503.85 933.343 507.45 938.509 507.45C941.119 507.45 943.495 506.82 945.601 505.02L943.729 502.338C942.307 503.472 940.471 504.156 938.743 504.156C936.295 504.156 934.117 502.86 933.613 499.764H946.357C946.393 499.332 946.429 498.846 946.429 498.36C946.411 492.978 943.099 489.306 938.275 489.306ZM938.203 492.654C940.597 492.654 942.163 494.22 942.577 496.902H933.631C934.027 494.382 935.521 492.654 938.203 492.654ZM959.805 489.306C957.699 489.306 955.935 490.062 954.801 491.7V489.756H951.075V507H954.837V497.514C954.837 494.58 956.547 492.888 958.941 492.888C959.859 492.888 961.011 493.104 961.803 493.518L962.703 489.792C961.839 489.45 960.957 489.306 959.805 489.306ZM973.869 489.306C968.541 489.306 964.599 493.212 964.599 498.378C964.599 503.544 968.541 507.45 973.869 507.45C979.197 507.45 983.157 503.544 983.157 498.378C983.157 493.212 979.197 489.306 973.869 489.306ZM973.869 492.852C976.947 492.852 979.287 495.12 979.287 498.378C979.287 501.636 976.947 503.904 973.869 503.904C970.791 503.904 968.469 501.636 968.469 498.378C968.469 495.12 970.791 492.852 973.869 492.852ZM1004.9 489.306C1000.07 489.306 996.274 493.104 996.274 498.378C996.274 503.652 1000.07 507.45 1004.9 507.45C1007.34 507.45 1009.13 506.46 1010.31 504.93V507H1014.08V481.08H1010.31V491.844C1009.13 490.314 1007.34 489.306 1004.9 489.306ZM1005.35 492.852C1008.46 492.852 1010.55 495.228 1010.55 498.378C1010.55 501.528 1008.46 503.904 1005.35 503.904C1002.11 503.904 1000.14 501.402 1000.14 498.378C1000.14 495.354 1002.11 492.852 1005.35 492.852ZM1028.01 489.306C1022.68 489.306 1018.74 493.212 1018.74 498.378C1018.74 503.544 1022.68 507.45 1028.01 507.45C1033.34 507.45 1037.3 503.544 1037.3 498.378C1037.3 493.212 1033.34 489.306 1028.01 489.306ZM1028.01 492.852C1031.09 492.852 1033.43 495.12 1033.43 498.378C1033.43 501.636 1031.09 503.904 1028.01 503.904C1024.93 503.904 1022.61 501.636 1022.61 498.378C1022.61 495.12 1024.93 492.852 1028.01 492.852ZM1056.21 489.756H1051.94L1047.7 502.86L1043.65 489.756H1039.63L1045.34 507H1049.77L1054.03 494.004L1058.3 507H1062.8L1068.5 489.756H1064.58L1060.51 502.932L1056.21 489.756ZM1081.12 489.306C1079.35 489.306 1077.21 489.828 1075.83 491.862V489.756H1072.08V507H1075.86V497.442C1075.86 494.49 1077.9 492.888 1080.33 492.888C1082.85 492.888 1084.34 494.508 1084.34 497.406V507H1088.12V496.164C1088.12 492.132 1085.22 489.306 1081.12 489.306ZM1105.42 489.756H1098.82V484.536H1095.04V489.756H1091.6V493.176H1095.04V500.754C1095.04 505.344 1097.32 507.45 1101.23 507.45C1103.39 507.45 1105.13 506.676 1106.52 505.74L1105.03 502.734C1104 503.382 1102.72 503.904 1101.55 503.904C1100.04 503.904 1098.82 503.004 1098.82 500.682V493.176H1105.42V489.756ZM1113.8 489.756H1110.02V507H1113.8V489.756ZM1111.89 481.134C1110.39 481.134 1109.26 482.304 1109.26 483.798C1109.26 485.292 1110.39 486.426 1111.89 486.426C1113.38 486.426 1114.55 485.292 1114.55 483.798C1114.55 482.304 1113.38 481.134 1111.89 481.134ZM1140.98 489.306C1138.84 489.306 1136.17 489.918 1134.68 492.384C1133.49 490.476 1131.35 489.306 1128.72 489.306C1126.96 489.306 1124.81 489.828 1123.43 491.862V489.756H1119.68V507H1123.46V497.442C1123.46 494.49 1125.5 492.888 1127.93 492.888C1130.45 492.888 1131.94 494.508 1131.94 497.406V507H1135.72V497.442C1135.72 494.49 1137.76 492.888 1140.19 492.888C1142.71 492.888 1144.2 494.508 1144.2 497.406V507H1147.98V496.164C1147.98 492.132 1145.08 489.306 1140.98 489.306ZM1161.06 489.306C1155.98 489.306 1152.47 492.978 1152.47 498.378C1152.47 503.85 1156.13 507.45 1161.29 507.45C1163.9 507.45 1166.28 506.82 1168.39 505.02L1166.51 502.338C1165.09 503.472 1163.26 504.156 1161.53 504.156C1159.08 504.156 1156.9 502.86 1156.4 499.764H1169.14C1169.18 499.332 1169.21 498.846 1169.21 498.36C1169.2 492.978 1165.88 489.306 1161.06 489.306ZM1160.99 492.654C1163.38 492.654 1164.95 494.22 1165.36 496.902H1156.42C1156.81 494.382 1158.31 492.654 1160.99 492.654ZM907.897 535.306C905.791 535.306 904.027 536.062 902.893 537.7V535.756H899.167V553H902.929V543.514C902.929 540.58 904.639 538.888 907.033 538.888C907.951 538.888 909.103 539.104 909.895 539.518L910.795 535.792C909.931 535.45 909.049 535.306 907.897 535.306ZM921.96 535.306C916.632 535.306 912.69 539.212 912.69 544.378C912.69 549.544 916.632 553.45 921.96 553.45C927.288 553.45 931.248 549.544 931.248 544.378C931.248 539.212 927.288 535.306 921.96 535.306ZM921.96 538.852C925.038 538.852 927.378 541.12 927.378 544.378C927.378 547.636 925.038 549.904 921.96 549.904C918.882 549.904 916.56 547.636 916.56 544.378C916.56 541.12 918.882 538.852 921.96 538.852ZM939.685 527.08H935.905V553H939.685V527.08ZM949.353 527.08H945.573V553H949.353V527.08ZM959.021 535.756H955.241V553H959.021V535.756ZM957.113 527.134C955.619 527.134 954.485 528.304 954.485 529.798C954.485 531.292 955.619 532.426 957.113 532.426C958.607 532.426 959.777 531.292 959.777 529.798C959.777 528.304 958.607 527.134 957.113 527.134ZM973.945 535.306C972.181 535.306 970.039 535.828 968.653 537.862V535.756H964.909V553H968.689V543.442C968.689 540.49 970.723 538.888 973.153 538.888C975.673 538.888 977.167 540.508 977.167 543.406V553H980.947V542.164C980.947 538.132 978.049 535.306 973.945 535.306ZM993.421 535.306C989.479 535.306 985.429 538.618 985.429 544.198C985.429 549.778 989.479 553.09 993.421 553.09C995.923 553.09 997.867 552.226 999.163 550.57V551.956C999.163 555.16 997.219 557.104 993.691 557.104C991.585 557.104 989.587 556.42 987.841 555.358L986.473 558.544C988.291 559.84 991.117 560.542 993.691 560.542C999.451 560.542 1002.94 557.212 1002.94 551.794V535.756H999.163V537.826C997.867 536.188 995.923 535.306 993.421 535.306ZM994.393 538.852C997.435 538.852 999.487 541.174 999.487 544.198C999.487 547.222 997.435 549.544 994.393 549.544C991.207 549.544 989.299 547.096 989.299 544.198C989.299 541.282 991.207 538.852 994.393 538.852ZM1034.36 535.756H1030.58V545.35C1030.58 548.68 1028.73 549.904 1026.37 549.904C1024.01 549.904 1022.16 548.68 1022.16 545.35V535.756H1018.38V545.692C1018.38 551.182 1022.32 553.45 1026.37 553.45C1030.4 553.45 1034.36 551.182 1034.36 545.692V535.756ZM1049.24 535.306C1046.79 535.306 1045.02 536.296 1043.84 537.808V535.756H1040.07V560.2H1043.84V550.948C1045.02 552.46 1046.79 553.45 1049.24 553.45C1054.06 553.45 1057.86 549.652 1057.86 544.378C1057.86 539.104 1054.06 535.306 1049.24 535.306ZM1048.79 538.852C1052.03 538.852 1053.99 541.354 1053.99 544.378C1053.99 547.402 1052.03 549.904 1048.79 549.904C1045.67 549.904 1043.58 547.528 1043.58 544.378C1043.58 541.228 1045.67 538.852 1048.79 538.852ZM1069.25 535.306C1065.31 535.306 1061.26 538.618 1061.26 544.198C1061.26 549.778 1065.31 553.09 1069.25 553.09C1071.75 553.09 1073.7 552.226 1074.99 550.57V551.956C1074.99 555.16 1073.05 557.104 1069.52 557.104C1067.42 557.104 1065.42 556.42 1063.67 555.358L1062.3 558.544C1064.12 559.84 1066.95 560.542 1069.52 560.542C1075.28 560.542 1078.77 557.212 1078.77 551.794V535.756H1074.99V537.826C1073.7 536.188 1071.75 535.306 1069.25 535.306ZM1070.22 538.852C1073.27 538.852 1075.32 541.174 1075.32 544.198C1075.32 547.222 1073.27 549.544 1070.22 549.544C1067.04 549.544 1065.13 547.096 1065.13 544.198C1065.13 541.282 1067.04 538.852 1070.22 538.852ZM1093.42 535.306C1091.31 535.306 1089.55 536.062 1088.41 537.7V535.756H1084.69V553H1088.45V543.514C1088.45 540.58 1090.16 538.888 1092.55 538.888C1093.47 538.888 1094.62 539.104 1095.41 539.518L1096.31 535.792C1095.45 535.45 1094.57 535.306 1093.42 535.306ZM1116.01 535.756H1112.25V537.844C1111.06 536.314 1109.28 535.306 1106.83 535.306C1102.01 535.306 1098.21 539.104 1098.21 544.378C1098.21 549.652 1102.01 553.45 1106.83 553.45C1109.28 553.45 1111.06 552.46 1112.25 550.93V553H1116.01V535.756ZM1107.28 538.852C1110.4 538.852 1112.48 541.228 1112.48 544.378C1112.48 547.528 1110.4 549.904 1107.28 549.904C1104.04 549.904 1102.08 547.402 1102.08 544.378C1102.08 541.354 1104.04 538.852 1107.28 538.852ZM1129.3 535.306C1124.47 535.306 1120.67 539.104 1120.67 544.378C1120.67 549.652 1124.47 553.45 1129.3 553.45C1131.74 553.45 1133.53 552.46 1134.71 550.93V553H1138.48V527.08H1134.71V537.844C1133.53 536.314 1131.74 535.306 1129.3 535.306ZM1129.75 538.852C1132.86 538.852 1134.95 541.228 1134.95 544.378C1134.95 547.528 1132.86 549.904 1129.75 549.904C1126.51 549.904 1124.54 547.402 1124.54 544.378C1124.54 541.354 1126.51 538.852 1129.75 538.852ZM1151.73 535.306C1146.65 535.306 1143.14 538.978 1143.14 544.378C1143.14 549.85 1146.79 553.45 1151.96 553.45C1154.57 553.45 1156.95 552.82 1159.05 551.02L1157.18 548.338C1155.76 549.472 1153.92 550.156 1152.19 550.156C1149.75 550.156 1147.57 548.86 1147.06 545.764H1159.81C1159.84 545.332 1159.88 544.846 1159.88 544.36C1159.86 538.978 1156.55 535.306 1151.73 535.306ZM1151.65 538.654C1154.05 538.654 1155.61 540.22 1156.03 542.902H1147.08C1147.48 540.382 1148.97 538.654 1151.65 538.654ZM1177.88 537.142C1176.1 535.99 1173.6 535.324 1170.9 535.324C1166.51 535.324 1163.77 537.43 1163.77 540.85C1163.77 543.622 1165.8 545.386 1169.62 545.908L1171.42 546.142C1173.47 546.43 1174.41 547.078 1174.41 548.05C1174.41 549.346 1173.06 550.156 1170.48 550.156C1167.68 550.156 1166.04 549.346 1164.8 548.392L1163.05 551.218C1165.57 553.09 1168.67 553.432 1170.45 553.432C1175.42 553.432 1178.3 551.11 1178.3 547.798C1178.3 544.846 1176.06 543.244 1172.3 542.704L1170.52 542.434C1168.94 542.2 1167.68 541.858 1167.68 540.652C1167.68 539.428 1168.88 538.6 1170.93 538.6C1173.08 538.6 1175.22 539.428 1176.26 540.076L1177.88 537.142Z" fill="#173361"/>
<path d="M1053.18 122.086C1050.64 120.394 1047.75 119.368 1044.07 119.368C1038.62 119.368 1034.14 122.176 1034.14 127.234C1034.14 131.914 1037.86 133.678 1041.61 134.2L1043.57 134.47C1047.26 134.974 1049.24 135.892 1049.24 137.872C1049.24 140.194 1046.65 141.598 1043.35 141.598C1040.44 141.598 1037.18 140.41 1035.45 138.826L1033.24 142.066C1035.85 144.316 1039.95 145.45 1043.37 145.45C1048.83 145.45 1053.47 142.642 1053.47 137.512C1053.47 132.832 1049.44 131.14 1045.35 130.582L1043.61 130.348C1040.33 129.88 1038.37 129.07 1038.37 126.982C1038.37 124.678 1040.67 123.22 1044.04 123.22C1046.59 123.22 1048.97 124.012 1051.11 125.38L1053.18 122.086ZM1065.99 127.306C1060.91 127.306 1057.4 130.978 1057.4 136.378C1057.4 141.85 1061.05 145.45 1066.22 145.45C1068.83 145.45 1071.21 144.82 1073.31 143.02L1071.44 140.338C1070.02 141.472 1068.18 142.156 1066.45 142.156C1064.01 142.156 1061.83 140.86 1061.32 137.764H1074.07C1074.1 137.332 1074.14 136.846 1074.14 136.36C1074.12 130.978 1070.81 127.306 1065.99 127.306ZM1065.91 130.654C1068.31 130.654 1069.87 132.22 1070.29 134.902H1061.34C1061.74 132.382 1063.23 130.654 1065.91 130.654ZM1082.57 119.08H1078.79V145H1082.57V119.08ZM1099.52 127.756H1093.62V124.84C1093.62 123.13 1094.41 122.176 1095.87 122.176C1097 122.176 1098.21 122.59 1099.09 123.094L1100.42 119.926C1099.15 119.17 1097.63 118.63 1095.62 118.63C1091.59 118.63 1089.84 121.384 1089.84 124.84V127.756H1086.38V131.176H1089.84V145H1093.62V131.176H1099.52V127.756ZM1122.33 127.306C1119.88 127.306 1118.12 128.296 1116.93 129.808V119.08H1113.17V145H1116.93V142.948C1118.12 144.46 1119.88 145.45 1122.33 145.45C1127.15 145.45 1130.95 141.652 1130.95 136.378C1130.95 131.104 1127.15 127.306 1122.33 127.306ZM1121.88 130.852C1125.12 130.852 1127.08 133.354 1127.08 136.378C1127.08 139.402 1125.12 141.904 1121.88 141.904C1118.77 141.904 1116.68 139.528 1116.68 136.378C1116.68 133.228 1118.77 130.852 1121.88 130.852ZM1152.16 127.756H1148.4V129.844C1147.21 128.314 1145.43 127.306 1142.98 127.306C1138.15 127.306 1134.36 131.104 1134.36 136.378C1134.36 141.652 1138.15 145.45 1142.98 145.45C1145.43 145.45 1147.21 144.46 1148.4 142.93V145H1152.16V127.756ZM1143.43 130.852C1146.54 130.852 1148.63 133.228 1148.63 136.378C1148.63 139.528 1146.54 141.904 1143.43 141.904C1140.19 141.904 1138.23 139.402 1138.23 136.378C1138.23 133.354 1140.19 130.852 1143.43 130.852ZM1161.84 119.08H1158.06V145H1161.84V119.08ZM1184.29 127.756H1180.53V129.844C1179.34 128.314 1177.56 127.306 1175.11 127.306C1170.29 127.306 1166.49 131.104 1166.49 136.378C1166.49 141.652 1170.29 145.45 1175.11 145.45C1177.56 145.45 1179.34 144.46 1180.53 142.93V145H1184.29V127.756ZM1175.56 130.852C1178.68 130.852 1180.76 133.228 1180.76 136.378C1180.76 139.528 1178.68 141.904 1175.56 141.904C1172.32 141.904 1170.36 139.402 1170.36 136.378C1170.36 133.354 1172.32 130.852 1175.56 130.852ZM1199.23 127.306C1197.47 127.306 1195.33 127.828 1193.94 129.862V127.756H1190.2V145H1193.98V135.442C1193.98 132.49 1196.01 130.888 1198.44 130.888C1200.96 130.888 1202.45 132.508 1202.45 135.406V145H1206.23V134.164C1206.23 130.132 1203.34 127.306 1199.23 127.306ZM1219.79 127.306C1214.3 127.306 1210.72 131.212 1210.72 136.378C1210.72 141.544 1214.3 145.45 1219.79 145.45C1222.36 145.45 1224.67 144.514 1226.23 142.696L1223.91 140.104C1222.81 141.13 1221.34 141.904 1219.68 141.904C1216.78 141.904 1214.59 139.636 1214.59 136.378C1214.59 133.12 1216.78 130.852 1219.68 130.852C1221.34 130.852 1222.61 131.5 1223.82 132.634L1226.23 130.06C1224.7 128.242 1222.36 127.306 1219.79 127.306ZM1234.23 127.756H1230.45V145H1234.23V127.756ZM1232.32 119.134C1230.83 119.134 1229.69 120.304 1229.69 121.798C1229.69 123.292 1230.83 124.426 1232.32 124.426C1233.82 124.426 1234.99 123.292 1234.99 121.798C1234.99 120.304 1233.82 119.134 1232.32 119.134ZM1249.15 127.306C1247.39 127.306 1245.25 127.828 1243.86 129.862V127.756H1240.12V145H1243.9V135.442C1243.9 132.49 1245.93 130.888 1248.36 130.888C1250.88 130.888 1252.38 132.508 1252.38 135.406V145H1256.16V134.164C1256.16 130.132 1253.26 127.306 1249.15 127.306ZM1268.63 127.306C1264.69 127.306 1260.64 130.618 1260.64 136.198C1260.64 141.778 1264.69 145.09 1268.63 145.09C1271.13 145.09 1273.08 144.226 1274.37 142.57V143.956C1274.37 147.16 1272.43 149.104 1268.9 149.104C1266.79 149.104 1264.8 148.42 1263.05 147.358L1261.68 150.544C1263.5 151.84 1266.33 152.542 1268.9 152.542C1274.66 152.542 1278.15 149.212 1278.15 143.794V127.756H1274.37V129.826C1273.08 128.188 1271.13 127.306 1268.63 127.306ZM1269.6 130.852C1272.64 130.852 1274.7 133.174 1274.7 136.198C1274.7 139.222 1272.64 141.544 1269.6 141.544C1266.42 141.544 1264.51 139.096 1264.51 136.198C1264.51 133.282 1266.42 130.852 1269.6 130.852ZM1107.37 173.306C1104.92 173.306 1103.16 174.296 1101.97 175.808V165.08H1098.21V191H1101.97V188.948C1103.16 190.46 1104.92 191.45 1107.37 191.45C1112.2 191.45 1115.99 187.652 1115.99 182.378C1115.99 177.104 1112.2 173.306 1107.37 173.306ZM1106.92 176.852C1110.16 176.852 1112.12 179.354 1112.12 182.378C1112.12 185.402 1110.16 187.904 1106.92 187.904C1103.81 187.904 1101.72 185.528 1101.72 182.378C1101.72 179.228 1103.81 176.852 1106.92 176.852ZM1129.37 173.306C1127.26 173.306 1125.5 174.062 1124.37 175.7V173.756H1120.64V191H1124.4V181.514C1124.4 178.58 1126.11 176.888 1128.51 176.888C1129.42 176.888 1130.58 177.104 1131.37 177.518L1132.27 173.792C1131.4 173.45 1130.52 173.306 1129.37 173.306ZM1143.43 173.306C1138.11 173.306 1134.16 177.212 1134.16 182.378C1134.16 187.544 1138.11 191.45 1143.43 191.45C1148.76 191.45 1152.72 187.544 1152.72 182.378C1152.72 177.212 1148.76 173.306 1143.43 173.306ZM1143.43 176.852C1146.51 176.852 1148.85 179.12 1148.85 182.378C1148.85 185.636 1146.51 187.904 1143.43 187.904C1140.36 187.904 1138.03 185.636 1138.03 182.378C1138.03 179.12 1140.36 176.852 1143.43 176.852ZM1161.16 165.08H1157.38V191H1161.16V183.728H1163.03L1168.77 191H1173.54L1166.25 181.874L1173.47 173.756H1168.74L1163.05 180.308H1161.16V165.08ZM1183.57 173.306C1178.49 173.306 1174.98 176.978 1174.98 182.378C1174.98 187.85 1178.63 191.45 1183.8 191.45C1186.41 191.45 1188.79 190.82 1190.89 189.02L1189.02 186.338C1187.6 187.472 1185.76 188.156 1184.03 188.156C1181.59 188.156 1179.41 186.86 1178.9 183.764H1191.65C1191.68 183.332 1191.72 182.846 1191.72 182.36C1191.7 176.978 1188.39 173.306 1183.57 173.306ZM1183.49 176.654C1185.89 176.654 1187.45 178.22 1187.87 180.902H1178.92C1179.32 178.382 1180.81 176.654 1183.49 176.654ZM1205.1 173.306C1202.99 173.306 1201.23 174.062 1200.09 175.7V173.756H1196.37V191H1200.13V181.514C1200.13 178.58 1201.84 176.888 1204.23 176.888C1205.15 176.888 1206.3 177.104 1207.09 177.518L1207.99 173.792C1207.13 173.45 1206.25 173.306 1205.1 173.306ZM1224.84 175.142C1223.06 173.99 1220.56 173.324 1217.86 173.324C1213.46 173.324 1210.73 175.43 1210.73 178.85C1210.73 181.622 1212.76 183.386 1216.58 183.908L1218.38 184.142C1220.43 184.43 1221.37 185.078 1221.37 186.05C1221.37 187.346 1220.02 188.156 1217.44 188.156C1214.63 188.156 1213 187.346 1211.75 186.392L1210.01 189.218C1212.53 191.09 1215.62 191.432 1217.41 191.432C1222.37 191.432 1225.25 189.11 1225.25 185.798C1225.25 182.846 1223.02 181.244 1219.26 180.704L1217.48 180.434C1215.89 180.2 1214.63 179.858 1214.63 178.652C1214.63 177.428 1215.84 176.6 1217.89 176.6C1220.03 176.6 1222.18 177.428 1223.22 178.076L1224.84 175.142Z" fill="#173361"/>
<defs>
<clipPath id="clip0">
<rect width="600" height="600" fill="white" transform="translate(330)"/>
</clipPath>
</defs>
</svg>
