<svg width="717" height="609" viewBox="0 0 717 609" fill="none" xmlns="http://www.w3.org/2000/svg">
<path d="M481 178C481 176.895 481.895 176 483 176H647C648.105 176 649 176.895 649 178V254C649 255.105 648.105 256 647 256H483C481.895 256 481 255.105 481 254V178Z" fill="#040531"/>
<path d="M509.732 198.204C506.516 198.204 503.984 200.736 503.984 204.252C503.984 207.768 506.516 210.3 509.732 210.3C511.364 210.3 512.552 209.64 513.344 208.62V210H515.852V192.72H513.344V199.896C512.552 198.876 511.364 198.204 509.732 198.204ZM510.032 200.568C512.108 200.568 513.5 202.152 513.5 204.252C513.5 206.352 512.108 207.936 510.032 207.936C507.872 207.936 506.564 206.268 506.564 204.252C506.564 202.236 507.872 200.568 510.032 200.568ZM524.684 198.204C521.3 198.204 518.96 200.652 518.96 204.252C518.96 207.9 521.396 210.3 524.84 210.3C526.58 210.3 528.164 209.88 529.568 208.68L528.32 206.892C527.372 207.648 526.148 208.104 524.996 208.104C523.364 208.104 521.912 207.24 521.576 205.176H530.072C530.096 204.888 530.12 204.564 530.12 204.24C530.108 200.652 527.9 198.204 524.684 198.204ZM524.636 200.436C526.232 200.436 527.276 201.48 527.552 203.268H521.588C521.852 201.588 522.848 200.436 524.636 200.436ZM539.326 198.204C537.694 198.204 536.518 198.864 535.726 199.872V198.504H533.218V214.8H535.726V208.632C536.518 209.64 537.694 210.3 539.326 210.3C542.542 210.3 545.074 207.768 545.074 204.252C545.074 200.736 542.542 198.204 539.326 198.204ZM539.026 200.568C541.186 200.568 542.494 202.236 542.494 204.252C542.494 206.268 541.186 207.936 539.026 207.936C536.95 207.936 535.558 206.352 535.558 204.252C535.558 202.152 536.95 200.568 539.026 200.568ZM550.691 192.72H548.171V210H550.691V192.72ZM559.968 198.204C556.416 198.204 553.788 200.808 553.788 204.252C553.788 207.696 556.416 210.3 559.968 210.3C563.52 210.3 566.16 207.696 566.16 204.252C566.16 200.808 563.52 198.204 559.968 198.204ZM559.968 200.568C562.02 200.568 563.58 202.08 563.58 204.252C563.58 206.424 562.02 207.936 559.968 207.936C557.916 207.936 556.368 206.424 556.368 204.252C556.368 202.08 557.916 200.568 559.968 200.568ZM579.977 198.504H577.217L573.653 205.104L569.957 198.504H567.137L572.237 207.636L568.121 214.872H570.905L579.977 198.504ZM593.005 198.204C589.789 198.204 587.257 200.736 587.257 204.252C587.257 207.768 589.789 210.3 593.005 210.3C594.637 210.3 595.825 209.64 596.617 208.62V210H599.125V192.72H596.617V199.896C595.825 198.876 594.637 198.204 593.005 198.204ZM593.305 200.568C595.381 200.568 596.773 202.152 596.773 204.252C596.773 206.352 595.381 207.936 593.305 207.936C591.145 207.936 589.837 206.268 589.837 204.252C589.837 202.236 591.145 200.568 593.305 200.568ZM607.958 198.204C604.574 198.204 602.234 200.652 602.234 204.252C602.234 207.9 604.67 210.3 608.114 210.3C609.854 210.3 611.438 209.88 612.842 208.68L611.594 206.892C610.646 207.648 609.422 208.104 608.27 208.104C606.638 208.104 605.186 207.24 604.85 205.176H613.346C613.37 204.888 613.394 204.564 613.394 204.24C613.382 200.652 611.174 198.204 607.958 198.204ZM607.91 200.436C609.506 200.436 610.55 201.48 610.826 203.268H604.862C605.126 201.588 606.122 200.436 607.91 200.436ZM626.874 198.504H624.21L620.814 207.396L617.418 198.504H614.682L619.302 210H622.278L626.874 198.504ZM498.212 228.204C494.828 228.204 492.488 230.652 492.488 234.252C492.488 237.9 494.924 240.3 498.368 240.3C500.108 240.3 501.692 239.88 503.096 238.68L501.848 236.892C500.9 237.648 499.676 238.104 498.524 238.104C496.892 238.104 495.44 237.24 495.104 235.176H503.6C503.624 234.888 503.648 234.564 503.648 234.24C503.636 230.652 501.428 228.204 498.212 228.204ZM498.164 230.436C499.76 230.436 500.804 231.48 501.08 233.268H495.116C495.38 231.588 496.376 230.436 498.164 230.436ZM512.769 228.204C511.593 228.204 510.165 228.552 509.241 229.908V228.504H506.745V240H509.265V233.628C509.265 231.66 510.621 230.592 512.241 230.592C513.921 230.592 514.917 231.672 514.917 233.604V240H517.437V232.776C517.437 230.088 515.505 228.204 512.769 228.204ZM531.519 228.504H528.855L525.459 237.396L522.063 228.504H519.327L523.947 240H526.923L531.519 228.504ZM536.289 228.504H533.769V240H536.289V228.504ZM535.017 222.756C534.021 222.756 533.265 223.536 533.265 224.532C533.265 225.528 534.021 226.284 535.017 226.284C536.013 226.284 536.793 225.528 536.793 224.532C536.793 223.536 536.013 222.756 535.017 222.756ZM546.034 228.204C544.63 228.204 543.454 228.708 542.698 229.8V228.504H540.214V240H542.722V233.676C542.722 231.72 543.862 230.592 545.458 230.592C546.07 230.592 546.838 230.736 547.366 231.012L547.966 228.528C547.39 228.3 546.802 228.204 546.034 228.204ZM555.41 228.204C551.858 228.204 549.23 230.808 549.23 234.252C549.23 237.696 551.858 240.3 555.41 240.3C558.962 240.3 561.602 237.696 561.602 234.252C561.602 230.808 558.962 228.204 555.41 228.204ZM555.41 230.568C557.462 230.568 559.022 232.08 559.022 234.252C559.022 236.424 557.462 237.936 555.41 237.936C553.358 237.936 551.81 236.424 551.81 234.252C551.81 232.08 553.358 230.568 555.41 230.568ZM570.73 228.204C569.554 228.204 568.126 228.552 567.202 229.908V228.504H564.706V240H567.226V233.628C567.226 231.66 568.582 230.592 570.202 230.592C571.882 230.592 572.878 231.672 572.878 233.604V240H575.398V232.776C575.398 230.088 573.466 228.204 570.73 228.204ZM593.41 228.204C591.982 228.204 590.206 228.612 589.21 230.256C588.418 228.984 586.99 228.204 585.238 228.204C584.062 228.204 582.634 228.552 581.71 229.908V228.504H579.214V240H581.734V233.628C581.734 231.66 583.09 230.592 584.71 230.592C586.39 230.592 587.386 231.672 587.386 233.604V240H589.906V233.628C589.906 231.66 591.262 230.592 592.882 230.592C594.562 230.592 595.558 231.672 595.558 233.604V240H598.078V232.776C598.078 230.088 596.146 228.204 593.41 228.204ZM606.798 228.204C603.414 228.204 601.074 230.652 601.074 234.252C601.074 237.9 603.51 240.3 606.954 240.3C608.694 240.3 610.278 239.88 611.682 238.68L610.434 236.892C609.486 237.648 608.262 238.104 607.11 238.104C605.478 238.104 604.026 237.24 603.69 235.176H612.186C612.21 234.888 612.234 234.564 612.234 234.24C612.222 230.652 610.014 228.204 606.798 228.204ZM606.75 230.436C608.346 230.436 609.39 231.48 609.666 233.268H603.702C603.966 231.588 604.962 230.436 606.75 230.436ZM621.355 228.204C620.179 228.204 618.751 228.552 617.827 229.908V228.504H615.331V240H617.851V233.628C617.851 231.66 619.207 230.592 620.827 230.592C622.507 230.592 623.503 231.672 623.503 233.604V240H626.023V232.776C626.023 230.088 624.091 228.204 621.355 228.204ZM637.558 228.504H633.154V225.024H630.634V228.504H628.342V230.784H630.634V235.836C630.634 238.896 632.158 240.3 634.762 240.3C636.202 240.3 637.366 239.784 638.29 239.16L637.294 237.156C636.61 237.588 635.758 237.936 634.978 237.936C633.97 237.936 633.154 237.336 633.154 235.788V230.784H637.558V228.504Z" fill="white"/>
<path d="M483 179H647V173H483V179ZM646 178V254H652V178H646ZM647 253H483V259H647V253ZM484 254V178H478V254H484ZM483 253C483.552 253 484 253.448 484 254H478C478 256.761 480.239 259 483 259V253ZM646 254C646 253.448 646.448 253 647 253V259C649.761 259 652 256.761 652 254H646ZM647 179C646.448 179 646 178.552 646 178H652C652 175.239 649.761 173 647 173V179ZM483 173C480.239 173 478 175.239 478 178H484C484 178.552 483.552 179 483 179V173Z" fill="#040531"/>
<path d="M500 5C500 3.89543 500.895 3 502 3H628C629.105 3 630 3.89543 630 5V81C630 82.1046 629.105 83 628 83H502C500.895 83 500 82.1046 500 81V5Z" fill="#040531"/>
<path d="M540.965 25.504H538.457V26.896C537.665 25.876 536.477 25.204 534.845 25.204C531.629 25.204 529.097 27.736 529.097 31.252C529.097 34.768 531.629 37.3 534.845 37.3C536.477 37.3 537.665 36.64 538.457 35.62V37H540.965V25.504ZM535.145 27.568C537.221 27.568 538.613 29.152 538.613 31.252C538.613 33.352 537.221 34.936 535.145 34.936C532.985 34.936 531.677 33.268 531.677 31.252C531.677 29.236 532.985 27.568 535.145 27.568ZM550.122 25.204C546.462 25.204 544.074 27.808 544.074 31.252C544.074 34.696 546.462 37.3 550.122 37.3C551.838 37.3 553.374 36.676 554.418 35.464L552.87 33.736C552.138 34.42 551.154 34.936 550.05 34.936C548.118 34.936 546.654 33.424 546.654 31.252C546.654 29.08 548.118 27.568 550.05 27.568C551.154 27.568 552.006 28 552.81 28.756L554.418 27.04C553.398 25.828 551.838 25.204 550.122 25.204ZM565.183 25.504H560.779V22.024H558.259V25.504H555.967V27.784H558.259V32.836C558.259 35.896 559.783 37.3 562.387 37.3C563.827 37.3 564.991 36.784 565.915 36.16L564.919 34.156C564.235 34.588 563.383 34.936 562.603 34.936C561.595 34.936 560.779 34.336 560.779 32.788V27.784H565.183V25.504ZM578.781 25.504H576.261V31.9C576.261 34.12 575.025 34.936 573.453 34.936C571.881 34.936 570.645 34.12 570.645 31.9V25.504H568.125V32.128C568.125 35.788 570.753 37.3 573.453 37.3C576.141 37.3 578.781 35.788 578.781 32.128V25.504ZM593.629 25.504H591.121V26.896C590.329 25.876 589.141 25.204 587.509 25.204C584.293 25.204 581.761 27.736 581.761 31.252C581.761 34.768 584.293 37.3 587.509 37.3C589.141 37.3 590.329 36.64 591.121 35.62V37H593.629V25.504ZM587.809 27.568C589.885 27.568 591.277 29.152 591.277 31.252C591.277 33.352 589.885 34.936 587.809 34.936C585.649 34.936 584.341 33.268 584.341 31.252C584.341 29.236 585.649 27.568 587.809 27.568ZM600.086 19.72H597.566V37H600.086V19.72ZM521.781 55.504H518.937L516.105 64.24L513.405 55.504H510.729L514.533 67H517.485L520.329 58.336L523.173 67H526.173L529.977 55.504H527.361L524.649 64.288L521.781 55.504ZM537.715 55.204C534.163 55.204 531.535 57.808 531.535 61.252C531.535 64.696 534.163 67.3 537.715 67.3C541.267 67.3 543.907 64.696 543.907 61.252C543.907 57.808 541.267 55.204 537.715 55.204ZM537.715 57.568C539.767 57.568 541.327 59.08 541.327 61.252C541.327 63.424 539.767 64.936 537.715 64.936C535.663 64.936 534.115 63.424 534.115 61.252C534.115 59.08 535.663 57.568 537.715 57.568ZM552.831 55.204C551.427 55.204 550.251 55.708 549.495 56.8V55.504H547.011V67H549.519V60.676C549.519 58.72 550.659 57.592 552.255 57.592C552.867 57.592 553.635 57.736 554.163 58.012L554.763 55.528C554.187 55.3 553.599 55.204 552.831 55.204ZM559.843 49.72H557.323V67H559.843V62.152H561.091L564.919 67H568.099L563.239 60.916L568.051 55.504H564.895L561.103 59.872H559.843V49.72ZM577.735 55.504H573.799V53.56C573.799 52.42 574.327 51.784 575.299 51.784C576.055 51.784 576.859 52.06 577.447 52.396L578.335 50.284C577.483 49.78 576.475 49.42 575.131 49.42C572.443 49.42 571.279 51.256 571.279 53.56V55.504H568.975V57.784H571.279V67H573.799V57.784H577.735V55.504ZM583 49.72H580.48V67H583V49.72ZM592.277 55.204C588.725 55.204 586.097 57.808 586.097 61.252C586.097 64.696 588.725 67.3 592.277 67.3C595.829 67.3 598.469 64.696 598.469 61.252C598.469 57.808 595.829 55.204 592.277 55.204ZM592.277 57.568C594.329 57.568 595.889 59.08 595.889 61.252C595.889 63.424 594.329 64.936 592.277 64.936C590.225 64.936 588.677 63.424 588.677 61.252C588.677 59.08 590.225 57.568 592.277 57.568ZM611.077 55.504H608.233L605.401 64.24L602.701 55.504H600.025L603.829 67H606.781L609.625 58.336L612.469 67H615.469L619.273 55.504H616.657L613.945 64.288L611.077 55.504Z" fill="white"/>
<path d="M502 6H628V0H502V6ZM627 5V81H633V5H627ZM628 80H502V86H628V80ZM503 81V5H497V81H503ZM502 80C502.552 80 503 80.4477 503 81H497C497 83.7614 499.239 86 502 86V80ZM627 81C627 80.4477 627.448 80 628 80V86C630.761 86 633 83.7614 633 81H627ZM628 6C627.448 6 627 5.55228 627 5H633C633 2.23858 630.761 0 628 0V6ZM502 0C499.239 0 497 2.23857 497 5H503C503 5.55229 502.552 6 502 6V0Z" fill="#040531"/>
<path d="M481 273C481 271.895 481.895 271 483 271H692C693.105 271 694 271.895 694 273V349C694 350.105 693.105 351 692 351H483C481.895 351 481 350.105 481 349V273Z" fill="#173361"/>
<path d="M499.161 293.204C495.777 293.204 493.437 295.652 493.437 299.252C493.437 302.9 495.873 305.3 499.317 305.3C501.057 305.3 502.641 304.88 504.045 303.68L502.797 301.892C501.849 302.648 500.625 303.104 499.473 303.104C497.841 303.104 496.389 302.24 496.053 300.176H504.549C504.573 299.888 504.597 299.564 504.597 299.24C504.585 295.652 502.377 293.204 499.161 293.204ZM499.113 295.436C500.709 295.436 501.753 296.48 502.029 298.268H496.065C496.329 296.588 497.325 295.436 499.113 295.436ZM517.39 293.504H514.426L511.606 297.344L508.81 293.504H505.726L509.986 299.132L505.654 305H508.594L511.474 301.004L514.39 305H517.474L513.142 299.108L517.39 293.504ZM525.943 293.204C524.311 293.204 523.135 293.864 522.343 294.872V293.504H519.835V309.8H522.343V303.632C523.135 304.64 524.311 305.3 525.943 305.3C529.159 305.3 531.691 302.768 531.691 299.252C531.691 295.736 529.159 293.204 525.943 293.204ZM525.643 295.568C527.803 295.568 529.111 297.236 529.111 299.252C529.111 301.268 527.803 302.936 525.643 302.936C523.567 302.936 522.175 301.352 522.175 299.252C522.175 297.152 523.567 295.568 525.643 295.568ZM539.684 293.204C536.3 293.204 533.96 295.652 533.96 299.252C533.96 302.9 536.396 305.3 539.84 305.3C541.58 305.3 543.164 304.88 544.568 303.68L543.32 301.892C542.372 302.648 541.148 303.104 539.996 303.104C538.364 303.104 536.912 302.24 536.576 300.176H545.072C545.096 299.888 545.12 299.564 545.12 299.24C545.108 295.652 542.9 293.204 539.684 293.204ZM539.636 295.436C541.232 295.436 542.276 296.48 542.552 298.268H536.588C536.852 296.588 537.848 295.436 539.636 295.436ZM554.038 293.204C552.634 293.204 551.458 293.708 550.702 294.8V293.504H548.218V305H550.726V298.676C550.726 296.72 551.866 295.592 553.462 295.592C554.074 295.592 554.842 295.736 555.37 296.012L555.97 293.528C555.394 293.3 554.806 293.204 554.038 293.204ZM561.051 293.504H558.531V305H561.051V293.504ZM559.779 287.756C558.783 287.756 558.027 288.536 558.027 289.532C558.027 290.528 558.783 291.284 559.779 291.284C560.775 291.284 561.555 290.528 561.555 289.532C561.555 288.536 560.775 287.756 559.779 287.756ZM579.172 293.204C577.744 293.204 575.968 293.612 574.972 295.256C574.18 293.984 572.752 293.204 571 293.204C569.824 293.204 568.396 293.552 567.472 294.908V293.504H564.976V305H567.496V298.628C567.496 296.66 568.852 295.592 570.472 295.592C572.152 295.592 573.148 296.672 573.148 298.604V305H575.668V298.628C575.668 296.66 577.024 295.592 578.644 295.592C580.324 295.592 581.32 296.672 581.32 298.604V305H583.84V297.776C583.84 295.088 581.908 293.204 579.172 293.204ZM592.559 293.204C589.175 293.204 586.835 295.652 586.835 299.252C586.835 302.9 589.271 305.3 592.715 305.3C594.455 305.3 596.039 304.88 597.443 303.68L596.195 301.892C595.247 302.648 594.023 303.104 592.871 303.104C591.239 303.104 589.787 302.24 589.451 300.176H597.947C597.971 299.888 597.995 299.564 597.995 299.24C597.983 295.652 595.775 293.204 592.559 293.204ZM592.511 295.436C594.107 295.436 595.151 296.48 595.427 298.268H589.463C589.727 296.588 590.723 295.436 592.511 295.436ZM607.117 293.204C605.941 293.204 604.513 293.552 603.589 294.908V293.504H601.093V305H603.613V298.628C603.613 296.66 604.969 295.592 606.589 295.592C608.269 295.592 609.265 296.672 609.265 298.604V305H611.785V297.776C611.785 295.088 609.853 293.204 607.117 293.204ZM623.32 293.504H618.916V290.024H616.396V293.504H614.104V295.784H616.396V300.836C616.396 303.896 617.92 305.3 620.524 305.3C621.964 305.3 623.128 304.784 624.052 304.16L623.056 302.156C622.372 302.588 621.52 302.936 620.74 302.936C619.732 302.936 618.916 302.336 618.916 300.788V295.784H623.32V293.504ZM642.238 293.504H639.394L636.562 302.24L633.862 293.504H631.186L634.99 305H637.942L640.786 296.336L643.63 305H646.63L650.434 293.504H647.818L645.106 302.288L642.238 293.504ZM655.34 293.504H652.82V305H655.34V293.504ZM654.068 287.756C653.072 287.756 652.316 288.536 652.316 289.532C652.316 290.528 653.072 291.284 654.068 291.284C655.064 291.284 655.844 290.528 655.844 289.532C655.844 288.536 655.064 287.756 654.068 287.756ZM667.101 293.504H662.697V290.024H660.177V293.504H657.885V295.784H660.177V300.836C660.177 303.896 661.701 305.3 664.305 305.3C665.745 305.3 666.909 304.784 667.833 304.16L666.837 302.156C666.153 302.588 665.301 302.936 664.521 302.936C663.513 302.936 662.697 302.336 662.697 300.788V295.784H667.101V293.504ZM672.683 287.72H670.163V305H672.683V298.628C672.683 296.66 674.039 295.592 675.659 295.592C677.339 295.592 678.335 296.672 678.335 298.604V305H680.855V297.776C680.855 295.088 678.923 293.204 676.187 293.204C675.023 293.204 673.607 293.552 672.683 294.872V287.72ZM500.835 323.504H496.431V320.024H493.911V323.504H491.619V325.784H493.911V330.836C493.911 333.896 495.435 335.3 498.039 335.3C499.479 335.3 500.643 334.784 501.567 334.16L500.571 332.156C499.887 332.588 499.035 332.936 498.255 332.936C497.247 332.936 496.431 332.336 496.431 330.788V325.784H500.835V323.504ZM508.794 323.204C505.41 323.204 503.07 325.652 503.07 329.252C503.07 332.9 505.506 335.3 508.95 335.3C510.69 335.3 512.274 334.88 513.678 333.68L512.43 331.892C511.482 332.648 510.258 333.104 509.106 333.104C507.474 333.104 506.022 332.24 505.686 330.176H514.182C514.206 329.888 514.23 329.564 514.23 329.24C514.218 325.652 512.01 323.204 508.794 323.204ZM508.746 325.436C510.342 325.436 511.386 326.48 511.662 328.268H505.698C505.962 326.588 506.958 325.436 508.746 325.436ZM526.231 324.428C525.043 323.66 523.375 323.216 521.575 323.216C518.647 323.216 516.823 324.62 516.823 326.9C516.823 328.748 518.179 329.924 520.723 330.272L521.923 330.428C523.291 330.62 523.915 331.052 523.915 331.7C523.915 332.564 523.015 333.104 521.299 333.104C519.427 333.104 518.335 332.564 517.507 331.928L516.343 333.812C518.023 335.06 520.087 335.288 521.275 335.288C524.587 335.288 526.507 333.74 526.507 331.532C526.507 329.564 525.019 328.496 522.511 328.136L521.323 327.956C520.267 327.8 519.427 327.572 519.427 326.768C519.427 325.952 520.231 325.4 521.599 325.4C523.027 325.4 524.455 325.952 525.151 326.384L526.231 324.428ZM537.304 323.504H532.9V320.024H530.38V323.504H528.088V325.784H530.38V330.836C530.38 333.896 531.904 335.3 534.508 335.3C535.948 335.3 537.112 334.784 538.036 334.16L537.04 332.156C536.356 332.588 535.504 332.936 534.724 332.936C533.716 332.936 532.9 332.336 532.9 330.788V325.784H537.304V323.504ZM545.262 323.204C541.878 323.204 539.538 325.652 539.538 329.252C539.538 332.9 541.974 335.3 545.418 335.3C547.158 335.3 548.742 334.88 550.146 333.68L548.898 331.892C547.95 332.648 546.726 333.104 545.574 333.104C543.942 333.104 542.49 332.24 542.154 330.176H550.65C550.674 329.888 550.698 329.564 550.698 329.24C550.686 325.652 548.478 323.204 545.262 323.204ZM545.214 325.436C546.81 325.436 547.854 326.48 548.13 328.268H542.166C542.43 326.588 543.426 325.436 545.214 325.436ZM558.716 323.204C555.5 323.204 552.968 325.736 552.968 329.252C552.968 332.768 555.5 335.3 558.716 335.3C560.348 335.3 561.536 334.64 562.328 333.62V335H564.836V317.72H562.328V324.896C561.536 323.876 560.348 323.204 558.716 323.204ZM559.016 325.568C561.092 325.568 562.484 327.152 562.484 329.252C562.484 331.352 561.092 332.936 559.016 332.936C556.856 332.936 555.548 331.268 555.548 329.252C555.548 327.236 556.856 325.568 559.016 325.568ZM584.145 324.428C582.957 323.66 581.289 323.216 579.489 323.216C576.561 323.216 574.737 324.62 574.737 326.9C574.737 328.748 576.093 329.924 578.637 330.272L579.837 330.428C581.205 330.62 581.829 331.052 581.829 331.7C581.829 332.564 580.929 333.104 579.213 333.104C577.341 333.104 576.249 332.564 575.421 331.928L574.257 333.812C575.937 335.06 578.001 335.288 579.189 335.288C582.501 335.288 584.421 333.74 584.421 331.532C584.421 329.564 582.933 328.496 580.425 328.136L579.237 327.956C578.181 327.8 577.341 327.572 577.341 326.768C577.341 325.952 578.145 325.4 579.513 325.4C580.941 325.4 582.369 325.952 583.065 326.384L584.145 324.428ZM592.602 323.204C588.942 323.204 586.554 325.808 586.554 329.252C586.554 332.696 588.942 335.3 592.602 335.3C594.318 335.3 595.854 334.676 596.898 333.464L595.35 331.736C594.618 332.42 593.634 332.936 592.53 332.936C590.598 332.936 589.134 331.424 589.134 329.252C589.134 327.08 590.598 325.568 592.53 325.568C593.634 325.568 594.486 326 595.29 326.756L596.898 325.04C595.878 323.828 594.318 323.204 592.602 323.204ZM604.372 323.204C600.988 323.204 598.648 325.652 598.648 329.252C598.648 332.9 601.084 335.3 604.528 335.3C606.268 335.3 607.852 334.88 609.256 333.68L608.008 331.892C607.06 332.648 605.836 333.104 604.684 333.104C603.052 333.104 601.6 332.24 601.264 330.176H609.76C609.784 329.888 609.808 329.564 609.808 329.24C609.796 325.652 607.588 323.204 604.372 323.204ZM604.324 325.436C605.92 325.436 606.964 326.48 607.24 328.268H601.276C601.54 326.588 602.536 325.436 604.324 325.436ZM618.93 323.204C617.754 323.204 616.326 323.552 615.402 324.908V323.504H612.906V335H615.426V328.628C615.426 326.66 616.782 325.592 618.402 325.592C620.082 325.592 621.078 326.672 621.078 328.604V335H623.598V327.776C623.598 325.088 621.666 323.204 618.93 323.204ZM638.453 323.504H635.945V324.896C635.153 323.876 633.965 323.204 632.333 323.204C629.117 323.204 626.585 325.736 626.585 329.252C626.585 332.768 629.117 335.3 632.333 335.3C633.965 335.3 635.153 334.64 635.945 333.62V335H638.453V323.504ZM632.633 325.568C634.709 325.568 636.101 327.152 636.101 329.252C636.101 331.352 634.709 332.936 632.633 332.936C630.473 332.936 629.165 331.268 629.165 329.252C629.165 327.236 630.473 325.568 632.633 325.568ZM648.21 323.204C646.806 323.204 645.63 323.708 644.874 324.8V323.504H642.39V335H644.898V328.676C644.898 326.72 646.038 325.592 647.634 325.592C648.246 325.592 649.014 325.736 649.542 326.012L650.142 323.528C649.566 323.3 648.978 323.204 648.21 323.204ZM655.222 323.504H652.702V335H655.222V323.504ZM653.95 317.756C652.954 317.756 652.198 318.536 652.198 319.532C652.198 320.528 652.954 321.284 653.95 321.284C654.946 321.284 655.726 320.528 655.726 319.532C655.726 318.536 654.946 317.756 653.95 317.756ZM664.5 323.204C660.948 323.204 658.32 325.808 658.32 329.252C658.32 332.696 660.948 335.3 664.5 335.3C668.052 335.3 670.692 332.696 670.692 329.252C670.692 325.808 668.052 323.204 664.5 323.204ZM664.5 325.568C666.552 325.568 668.112 327.08 668.112 329.252C668.112 331.424 666.552 332.936 664.5 332.936C662.448 332.936 660.9 331.424 660.9 329.252C660.9 327.08 662.448 325.568 664.5 325.568ZM682.7 324.428C681.512 323.66 679.844 323.216 678.044 323.216C675.116 323.216 673.292 324.62 673.292 326.9C673.292 328.748 674.648 329.924 677.192 330.272L678.392 330.428C679.76 330.62 680.384 331.052 680.384 331.7C680.384 332.564 679.484 333.104 677.768 333.104C675.896 333.104 674.804 332.564 673.976 331.928L672.812 333.812C674.492 335.06 676.556 335.288 677.744 335.288C681.056 335.288 682.976 333.74 682.976 331.532C682.976 329.564 681.488 328.496 678.98 328.136L677.792 327.956C676.736 327.8 675.896 327.572 675.896 326.768C675.896 325.952 676.7 325.4 678.068 325.4C679.496 325.4 680.924 325.952 681.62 326.384L682.7 324.428Z" fill="white"/>
<path d="M483 274H692V268H483V274ZM691 273V349H697V273H691ZM692 348H483V354H692V348ZM484 349V273H478V349H484ZM483 348C483.552 348 484 348.448 484 349H478C478 351.761 480.239 354 483 354V348ZM691 349C691 348.448 691.448 348 692 348V354C694.761 354 697 351.761 697 349H691ZM692 274C691.448 274 691 273.552 691 273H697C697 270.239 694.761 268 692 268V274ZM483 268C480.239 268 478 270.239 478 273H484C484 273.552 483.552 274 483 274V268Z" fill="#173361"/>
<path d="M481 368C481 366.895 481.895 366 483 366H637C638.105 366 639 366.895 639 368V444C639 445.105 638.105 446 637 446H483C481.895 446 481 445.105 481 444V368Z" fill="#0074A2"/>
<path d="M498.04 388.204C494.824 388.204 492.292 390.736 492.292 394.252C492.292 397.768 494.824 400.3 498.04 400.3C499.672 400.3 500.86 399.64 501.652 398.62V400H504.16V382.72H501.652V389.896C500.86 388.876 499.672 388.204 498.04 388.204ZM498.34 390.568C500.416 390.568 501.808 392.152 501.808 394.252C501.808 396.352 500.416 397.936 498.34 397.936C496.18 397.936 494.872 396.268 494.872 394.252C494.872 392.236 496.18 390.568 498.34 390.568ZM512.993 388.204C509.609 388.204 507.269 390.652 507.269 394.252C507.269 397.9 509.705 400.3 513.149 400.3C514.889 400.3 516.473 399.88 517.877 398.68L516.629 396.892C515.681 397.648 514.457 398.104 513.305 398.104C511.673 398.104 510.221 397.24 509.885 395.176H518.381C518.405 394.888 518.429 394.564 518.429 394.24C518.417 390.652 516.209 388.204 512.993 388.204ZM512.945 390.436C514.541 390.436 515.585 391.48 515.861 393.268H509.897C510.161 391.588 511.157 390.436 512.945 390.436ZM527.635 388.204C526.003 388.204 524.827 388.864 524.035 389.872V388.504H521.527V404.8H524.035V398.632C524.827 399.64 526.003 400.3 527.635 400.3C530.851 400.3 533.383 397.768 533.383 394.252C533.383 390.736 530.851 388.204 527.635 388.204ZM527.335 390.568C529.495 390.568 530.803 392.236 530.803 394.252C530.803 396.268 529.495 397.936 527.335 397.936C525.259 397.936 523.867 396.352 523.867 394.252C523.867 392.152 525.259 390.568 527.335 390.568ZM539 382.72H536.48V400H539V382.72ZM548.277 388.204C544.725 388.204 542.097 390.808 542.097 394.252C542.097 397.696 544.725 400.3 548.277 400.3C551.829 400.3 554.469 397.696 554.469 394.252C554.469 390.808 551.829 388.204 548.277 388.204ZM548.277 390.568C550.329 390.568 551.889 392.08 551.889 394.252C551.889 396.424 550.329 397.936 548.277 397.936C546.225 397.936 544.677 396.424 544.677 394.252C544.677 392.08 546.225 390.568 548.277 390.568ZM568.286 388.504H565.526L561.962 395.104L558.266 388.504H555.446L560.546 397.636L556.43 404.872H559.214L568.286 388.504ZM582.502 388.204C580.87 388.204 579.694 388.864 578.902 389.872V388.504H576.394V404.8H578.902V398.632C579.694 399.64 580.87 400.3 582.502 400.3C585.718 400.3 588.25 397.768 588.25 394.252C588.25 390.736 585.718 388.204 582.502 388.204ZM582.202 390.568C584.362 390.568 585.67 392.236 585.67 394.252C585.67 396.268 584.362 397.936 582.202 397.936C580.126 397.936 578.734 396.352 578.734 394.252C578.734 392.152 580.126 390.568 582.202 390.568ZM597.167 388.204C595.763 388.204 594.587 388.708 593.831 389.8V388.504H591.347V400H593.855V393.676C593.855 391.72 594.995 390.592 596.591 390.592C597.203 390.592 597.971 390.736 598.499 391.012L599.099 388.528C598.523 388.3 597.935 388.204 597.167 388.204ZM606.543 388.204C602.991 388.204 600.363 390.808 600.363 394.252C600.363 397.696 602.991 400.3 606.543 400.3C610.095 400.3 612.735 397.696 612.735 394.252C612.735 390.808 610.095 388.204 606.543 388.204ZM606.543 390.568C608.595 390.568 610.155 392.08 610.155 394.252C610.155 396.424 608.595 397.936 606.543 397.936C604.491 397.936 602.943 396.424 602.943 394.252C602.943 392.08 604.491 390.568 606.543 390.568ZM620.759 388.204C617.543 388.204 615.011 390.736 615.011 394.252C615.011 397.768 617.543 400.3 620.759 400.3C622.391 400.3 623.579 399.64 624.371 398.62V400H626.879V382.72H624.371V389.896C623.579 388.876 622.391 388.204 620.759 388.204ZM621.059 390.568C623.135 390.568 624.527 392.152 624.527 394.252C624.527 396.352 623.135 397.936 621.059 397.936C618.899 397.936 617.591 396.268 617.591 394.252C617.591 392.236 618.899 390.568 621.059 390.568ZM508.05 418.504H505.206L502.374 427.24L499.674 418.504H496.998L500.802 430H503.754L506.598 421.336L509.442 430H512.442L516.246 418.504H513.63L510.918 427.288L508.05 418.504ZM521.152 418.504H518.632V430H521.152V418.504ZM519.88 412.756C518.884 412.756 518.128 413.536 518.128 414.532C518.128 415.528 518.884 416.284 519.88 416.284C520.876 416.284 521.656 415.528 521.656 414.532C521.656 413.536 520.876 412.756 519.88 412.756ZM532.913 418.504H528.509V415.024H525.989V418.504H523.697V420.784H525.989V425.836C525.989 428.896 527.513 430.3 530.117 430.3C531.557 430.3 532.721 429.784 533.645 429.16L532.649 427.156C531.965 427.588 531.113 427.936 530.333 427.936C529.325 427.936 528.509 427.336 528.509 425.788V420.784H532.913V418.504ZM538.496 412.72H535.976V430H538.496V423.628C538.496 421.66 539.852 420.592 541.472 420.592C543.152 420.592 544.148 421.672 544.148 423.604V430H546.668V422.776C546.668 420.088 544.736 418.204 542 418.204C540.836 418.204 539.42 418.552 538.496 419.872V412.72ZM557.264 413.2V430H559.976V422.932H561.344L566.696 430H570.056L564.524 422.932C567.944 422.812 570.128 420.916 570.128 418.06C570.128 414.928 568.04 413.2 564.176 413.2H557.264ZM564.104 415.744C566.228 415.744 567.308 416.464 567.308 418.06C567.308 419.68 566.288 420.472 564.104 420.472H559.976V415.744H564.104ZM573.718 413.2V430H580.618C584.446 430 586.906 428.548 586.906 425.2C586.906 423.268 585.526 421.816 583.93 421.348C585.406 420.94 586.522 419.5 586.522 417.772C586.522 414.436 583.822 413.2 580.234 413.2H573.718ZM580.498 422.8C582.634 422.8 584.062 423.208 584.062 425.104C584.062 427.048 582.634 427.456 580.498 427.456H576.43V422.8H580.498ZM580.126 415.744C582.01 415.744 583.678 416.044 583.678 417.976C583.678 419.98 582.034 420.268 580.15 420.268H576.43V415.744H580.126ZM598.528 413.2H595.144L588.508 430H591.328L592.984 425.716H600.592L602.248 430H605.164L598.528 413.2ZM596.788 415.9L599.596 423.148H593.98L596.788 415.9ZM615.211 412.888C610.051 412.888 606.415 416.584 606.415 421.6C606.415 426.616 610.051 430.312 615.211 430.312C618.151 430.312 620.671 429.016 622.099 426.916L619.891 425.296C618.847 426.808 617.203 427.708 615.211 427.708C611.779 427.708 609.259 425.224 609.259 421.6C609.259 417.976 611.779 415.492 615.211 415.492C617.215 415.492 618.883 416.428 619.903 417.916L622.171 416.404C620.851 414.22 618.199 412.888 615.211 412.888Z" fill="white"/>
<path d="M483 369H637V363H483V369ZM636 368V444H642V368H636ZM637 443H483V449H637V443ZM484 444V368H478V444H484ZM483 443C483.552 443 484 443.448 484 444H478C478 446.761 480.239 449 483 449V443ZM636 444C636 443.448 636.448 443 637 443V449C639.761 449 642 446.761 642 444H636ZM637 369C636.448 369 636 368.552 636 368H642C642 365.239 639.761 363 637 363V369ZM483 363C480.239 363 478 365.239 478 368H484C484 368.552 483.552 369 483 369V363Z" fill="#0074A2"/>
<path d="M481 463C481 461.895 481.895 461 483 461H596C597.105 461 598 461.895 598 463V539C598 540.105 597.105 541 596 541H483C481.895 541 481 540.105 481 539V463Z" fill="#00AFBA"/>
<path d="M499.4 483.204C497.768 483.204 496.592 483.864 495.8 484.872V483.504H493.292V499.8H495.8V493.632C496.592 494.64 497.768 495.3 499.4 495.3C502.616 495.3 505.148 492.768 505.148 489.252C505.148 485.736 502.616 483.204 499.4 483.204ZM499.1 485.568C501.26 485.568 502.568 487.236 502.568 489.252C502.568 491.268 501.26 492.936 499.1 492.936C497.024 492.936 495.632 491.352 495.632 489.252C495.632 487.152 497.024 485.568 499.1 485.568ZM513.141 483.204C509.757 483.204 507.417 485.652 507.417 489.252C507.417 492.9 509.853 495.3 513.297 495.3C515.037 495.3 516.621 494.88 518.025 493.68L516.777 491.892C515.829 492.648 514.605 493.104 513.453 493.104C511.821 493.104 510.369 492.24 510.033 490.176H518.529C518.553 489.888 518.577 489.564 518.577 489.24C518.565 485.652 516.357 483.204 513.141 483.204ZM513.093 485.436C514.689 485.436 515.733 486.48 516.009 488.268H510.045C510.309 486.588 511.305 485.436 513.093 485.436ZM527.495 483.204C526.091 483.204 524.915 483.708 524.159 484.8V483.504H521.675V495H524.183V488.676C524.183 486.72 525.323 485.592 526.919 485.592C527.531 485.592 528.299 485.736 528.827 486.012L529.427 483.528C528.851 483.3 528.263 483.204 527.495 483.204ZM539.602 483.504H535.666V481.56C535.666 480.42 536.194 479.784 537.166 479.784C537.922 479.784 538.726 480.06 539.314 480.396L540.202 478.284C539.35 477.78 538.342 477.42 536.998 477.42C534.31 477.42 533.146 479.256 533.146 481.56V483.504H530.842V485.784H533.146V495H535.666V485.784H539.602V483.504ZM547.347 483.204C543.795 483.204 541.167 485.808 541.167 489.252C541.167 492.696 543.795 495.3 547.347 495.3C550.899 495.3 553.539 492.696 553.539 489.252C553.539 485.808 550.899 483.204 547.347 483.204ZM547.347 485.568C549.399 485.568 550.959 487.08 550.959 489.252C550.959 491.424 549.399 492.936 547.347 492.936C545.295 492.936 543.747 491.424 543.747 489.252C543.747 487.08 545.295 485.568 547.347 485.568ZM562.464 483.204C561.06 483.204 559.884 483.708 559.128 484.8V483.504H556.644V495H559.152V488.676C559.152 486.72 560.292 485.592 561.888 485.592C562.5 485.592 563.268 485.736 563.796 486.012L564.396 483.528C563.82 483.3 563.232 483.204 562.464 483.204ZM581.152 483.204C579.724 483.204 577.948 483.612 576.952 485.256C576.16 483.984 574.732 483.204 572.98 483.204C571.804 483.204 570.376 483.552 569.452 484.908V483.504H566.956V495H569.476V488.628C569.476 486.66 570.832 485.592 572.452 485.592C574.132 485.592 575.128 486.672 575.128 488.604V495H577.648V488.628C577.648 486.66 579.004 485.592 580.624 485.592C582.304 485.592 583.3 486.672 583.3 488.604V495H585.82V487.776C585.82 485.088 583.888 483.204 581.152 483.204ZM504.145 513.504H501.625V519.9C501.625 522.12 500.389 522.936 498.817 522.936C497.245 522.936 496.009 522.12 496.009 519.9V513.504H493.489V520.128C493.489 523.788 496.117 525.3 498.817 525.3C501.505 525.3 504.145 523.788 504.145 520.128V513.504ZM514.06 513.204C512.428 513.204 511.252 513.864 510.46 514.872V513.504H507.952V529.8H510.46V523.632C511.252 524.64 512.428 525.3 514.06 525.3C517.276 525.3 519.808 522.768 519.808 519.252C519.808 515.736 517.276 513.204 514.06 513.204ZM513.76 515.568C515.92 515.568 517.228 517.236 517.228 519.252C517.228 521.268 515.92 522.936 513.76 522.936C511.684 522.936 510.292 521.352 510.292 519.252C510.292 517.152 511.684 515.568 513.76 515.568ZM527.826 513.204C524.61 513.204 522.078 515.736 522.078 519.252C522.078 522.768 524.61 525.3 527.826 525.3C529.458 525.3 530.646 524.64 531.438 523.62V525H533.946V507.72H531.438V514.896C530.646 513.876 529.458 513.204 527.826 513.204ZM528.126 515.568C530.202 515.568 531.594 517.152 531.594 519.252C531.594 521.352 530.202 522.936 528.126 522.936C525.966 522.936 524.658 521.268 524.658 519.252C524.658 517.236 525.966 515.568 528.126 515.568ZM548.922 513.504H546.414V514.896C545.622 513.876 544.434 513.204 542.802 513.204C539.586 513.204 537.054 515.736 537.054 519.252C537.054 522.768 539.586 525.3 542.802 525.3C544.434 525.3 545.622 524.64 546.414 523.62V525H548.922V513.504ZM543.102 515.568C545.178 515.568 546.57 517.152 546.57 519.252C546.57 521.352 545.178 522.936 543.102 522.936C540.942 522.936 539.634 521.268 539.634 519.252C539.634 517.236 540.942 515.568 543.102 515.568ZM560.695 513.504H556.291V510.024H553.771V513.504H551.479V515.784H553.771V520.836C553.771 523.896 555.295 525.3 557.899 525.3C559.339 525.3 560.503 524.784 561.427 524.16L560.431 522.156C559.747 522.588 558.895 522.936 558.115 522.936C557.107 522.936 556.291 522.336 556.291 520.788V515.784H560.695V513.504ZM568.653 513.204C565.269 513.204 562.929 515.652 562.929 519.252C562.929 522.9 565.365 525.3 568.809 525.3C570.549 525.3 572.133 524.88 573.537 523.68L572.289 521.892C571.341 522.648 570.117 523.104 568.965 523.104C567.333 523.104 565.881 522.24 565.545 520.176H574.041C574.065 519.888 574.089 519.564 574.089 519.24C574.077 515.652 571.869 513.204 568.653 513.204ZM568.605 515.436C570.201 515.436 571.245 516.48 571.521 518.268H565.557C565.821 516.588 566.817 515.436 568.605 515.436ZM586.091 514.428C584.903 513.66 583.235 513.216 581.435 513.216C578.507 513.216 576.683 514.62 576.683 516.9C576.683 518.748 578.039 519.924 580.583 520.272L581.783 520.428C583.151 520.62 583.775 521.052 583.775 521.7C583.775 522.564 582.875 523.104 581.159 523.104C579.287 523.104 578.195 522.564 577.367 521.928L576.203 523.812C577.883 525.06 579.947 525.288 581.135 525.288C584.447 525.288 586.367 523.74 586.367 521.532C586.367 519.564 584.879 518.496 582.371 518.136L581.183 517.956C580.127 517.8 579.287 517.572 579.287 516.768C579.287 515.952 580.091 515.4 581.459 515.4C582.887 515.4 584.315 515.952 585.011 516.384L586.091 514.428Z" fill="white"/>
<path d="M483 464H596V458H483V464ZM595 463V539H601V463H595ZM596 538H483V544H596V538ZM484 539V463H478V539H484ZM483 538C483.552 538 484 538.448 484 539H478C478 541.761 480.239 544 483 544V538ZM595 539C595 538.448 595.448 538 596 538V544C598.761 544 601 541.761 601 539H595ZM596 464C595.448 464 595 463.552 595 463H601C601 460.239 598.761 458 596 458V464ZM483 458C480.239 458 478 460.239 478 463H484C484 463.552 483.552 464 483 464V458Z" fill="#00AFBA"/>
<circle cx="409" cy="216" r="14" fill="#040531" stroke="#040531" stroke-width="2"/>
<path d="M405.128 212.256C405.956 211.248 406.856 210.396 408.56 210.396C410.372 210.396 411.476 211.62 411.476 213.3C411.476 214.5 410.912 215.496 409.976 216.504L403.904 222.96V225H414.656V222.528H407.756L411.968 218.016C413 216.9 414.2 215.424 414.2 213.312C414.2 210.156 412.112 207.912 408.632 207.912C405.596 207.912 404.072 209.628 403.268 210.72L405.128 212.256Z" fill="white"/>
<circle cx="15" cy="216" r="14" fill="#C5832E" stroke="#C5832E" stroke-width="2"/>
<path d="M17.6393 207.936L10.7633 210.84V213.552L15.0353 211.716V225H17.6393V207.936Z" fill="white"/>
<circle cx="409" cy="311" r="14" fill="#173361" stroke="#173361" stroke-width="2"/>
<path d="M412.766 309.752H410.162V314.264H405.794L411.902 303.224H408.95L402.662 314.732V316.736H410.162V320H412.766V316.736H415.334V314.264H412.766V309.752Z" fill="white"/>
<circle cx="409" cy="406" r="14" fill="#0074A2" stroke="#0074A2" stroke-width="2"/>
<path d="M413.824 398.2H404.416L404.26 407.176H408.124C411.124 407.176 411.976 408.532 411.976 409.984C411.976 411.424 410.956 412.816 408.784 412.816C407.284 412.816 405.676 412.096 404.68 410.92L402.952 412.612C404.392 414.388 406.36 415.3 408.796 415.3C411.94 415.3 414.688 413.392 414.688 409.756C414.688 407.128 412.864 404.716 408.928 404.716H406.72L406.804 400.66H413.824V398.2Z" fill="white"/>
<circle cx="409" cy="501" r="14" fill="#00AFBA" stroke="#00AFBA" stroke-width="2"/>
<path d="M412.896 493.2H409.716L404.88 500.472C403.896 501.936 403.368 503.232 403.368 504.708C403.368 507.9 405.984 510.288 409.464 510.288C412.956 510.288 415.56 507.9 415.56 504.708C415.56 501.516 412.992 499.128 409.92 499.128C409.356 499.128 408.936 499.212 408.624 499.296L412.896 493.2ZM409.464 501.54C411.408 501.54 412.872 502.836 412.872 504.708C412.872 506.58 411.408 507.876 409.464 507.876C407.532 507.876 406.056 506.592 406.056 504.708C406.056 502.836 407.532 501.54 409.464 501.54Z" fill="white"/>
<circle cx="409" cy="581" r="14" fill="#B4E1E4" stroke="#B4E1E4" stroke-width="2"/>
<path d="M414.846 573.2H403.302V575.66H411.714L404.538 590H407.574L414.846 575.24V573.2Z" fill="#173361"/>
<path d="M481 558C481 556.895 481.895 556 483 556H712C713.105 556 714 556.895 714 558V604C714 605.105 713.105 606 712 606H483C481.895 606 481 605.105 481 604V558Z" fill="#B4E1E4"/>
<path d="M495.5 572.72H492.98V590H495.5V572.72ZM510.465 578.504H507.957V579.896C507.165 578.876 505.977 578.204 504.345 578.204C501.129 578.204 498.597 580.736 498.597 584.252C498.597 587.768 501.129 590.3 504.345 590.3C505.977 590.3 507.165 589.64 507.957 588.62V590H510.465V578.504ZM504.645 580.568C506.721 580.568 508.113 582.152 508.113 584.252C508.113 586.352 506.721 587.936 504.645 587.936C502.485 587.936 501.177 586.268 501.177 584.252C501.177 582.236 502.485 580.568 504.645 580.568ZM524.938 578.504H522.418V584.9C522.418 587.12 521.182 587.936 519.61 587.936C518.038 587.936 516.802 587.12 516.802 584.9V578.504H514.282V585.128C514.282 588.788 516.91 590.3 519.61 590.3C522.298 590.3 524.938 588.788 524.938 585.128V578.504ZM534.769 578.204C533.593 578.204 532.165 578.552 531.241 579.908V578.504H528.745V590H531.265V583.628C531.265 581.66 532.621 580.592 534.241 580.592C535.921 580.592 536.917 581.672 536.917 583.604V590H539.437V582.776C539.437 580.088 537.505 578.204 534.769 578.204ZM548.473 578.204C544.813 578.204 542.425 580.808 542.425 584.252C542.425 587.696 544.813 590.3 548.473 590.3C550.189 590.3 551.725 589.676 552.769 588.464L551.221 586.736C550.489 587.42 549.505 587.936 548.401 587.936C546.469 587.936 545.005 586.424 545.005 584.252C545.005 582.08 546.469 580.568 548.401 580.568C549.505 580.568 550.357 581 551.161 581.756L552.769 580.04C551.749 578.828 550.189 578.204 548.473 578.204ZM558.101 572.72H555.581V590H558.101V583.628C558.101 581.66 559.457 580.592 561.077 580.592C562.757 580.592 563.753 581.672 563.753 583.604V590H566.273V582.776C566.273 580.088 564.341 578.204 561.605 578.204C560.441 578.204 559.025 578.552 558.101 579.872V572.72ZM581.778 578.204C578.118 578.204 575.73 580.808 575.73 584.252C575.73 587.696 578.118 590.3 581.778 590.3C583.494 590.3 585.03 589.676 586.074 588.464L584.526 586.736C583.794 587.42 582.81 587.936 581.706 587.936C579.774 587.936 578.31 586.424 578.31 584.252C578.31 582.08 579.774 580.568 581.706 580.568C582.81 580.568 583.662 581 584.466 581.756L586.074 580.04C585.054 578.828 583.494 578.204 581.778 578.204ZM594.004 578.204C590.452 578.204 587.824 580.808 587.824 584.252C587.824 587.696 590.452 590.3 594.004 590.3C597.556 590.3 600.196 587.696 600.196 584.252C600.196 580.808 597.556 578.204 594.004 578.204ZM594.004 580.568C596.056 580.568 597.616 582.08 597.616 584.252C597.616 586.424 596.056 587.936 594.004 587.936C591.952 587.936 590.404 586.424 590.404 584.252C590.404 582.08 591.952 580.568 594.004 580.568ZM609.324 578.204C608.148 578.204 606.72 578.552 605.796 579.908V578.504H603.3V590H605.82V583.628C605.82 581.66 607.176 580.592 608.796 580.592C610.476 580.592 611.472 581.672 611.472 583.604V590H613.992V582.776C613.992 580.088 612.06 578.204 609.324 578.204ZM623.832 578.204C622.656 578.204 621.228 578.552 620.304 579.908V578.504H617.808V590H620.328V583.628C620.328 581.66 621.684 580.592 623.304 580.592C624.984 580.592 625.98 581.672 625.98 583.604V590H628.5V582.776C628.5 580.088 626.568 578.204 623.832 578.204ZM637.212 578.204C633.828 578.204 631.488 580.652 631.488 584.252C631.488 587.9 633.924 590.3 637.368 590.3C639.108 590.3 640.692 589.88 642.096 588.68L640.848 586.892C639.9 587.648 638.676 588.104 637.524 588.104C635.892 588.104 634.44 587.24 634.104 585.176H642.6C642.624 584.888 642.648 584.564 642.648 584.24C642.636 580.652 640.428 578.204 637.212 578.204ZM637.164 580.436C638.76 580.436 639.804 581.48 640.08 583.268H634.116C634.38 581.588 635.376 580.436 637.164 580.436ZM650.965 578.204C647.305 578.204 644.917 580.808 644.917 584.252C644.917 587.696 647.305 590.3 650.965 590.3C652.681 590.3 654.217 589.676 655.261 588.464L653.713 586.736C652.981 587.42 651.997 587.936 650.893 587.936C648.961 587.936 647.497 586.424 647.497 584.252C647.497 582.08 648.961 580.568 650.893 580.568C651.997 580.568 652.849 581 653.653 581.756L655.261 580.04C654.241 578.828 652.681 578.204 650.965 578.204ZM666.027 578.504H661.623V575.024H659.103V578.504H656.811V580.784H659.103V585.836C659.103 588.896 660.627 590.3 663.231 590.3C664.671 590.3 665.835 589.784 666.759 589.16L665.763 587.156C665.079 587.588 664.227 587.936 663.447 587.936C662.439 587.936 661.623 587.336 661.623 585.788V580.784H666.027V578.504ZM674.441 578.204C670.889 578.204 668.261 580.808 668.261 584.252C668.261 587.696 670.889 590.3 674.441 590.3C677.993 590.3 680.633 587.696 680.633 584.252C680.633 580.808 677.993 578.204 674.441 578.204ZM674.441 580.568C676.493 580.568 678.053 582.08 678.053 584.252C678.053 586.424 676.493 587.936 674.441 587.936C672.389 587.936 670.841 586.424 670.841 584.252C670.841 582.08 672.389 580.568 674.441 580.568ZM689.558 578.204C688.154 578.204 686.978 578.708 686.222 579.8V578.504H683.738V590H686.246V583.676C686.246 581.72 687.386 580.592 688.982 580.592C689.594 580.592 690.362 580.736 690.89 581.012L691.49 578.528C690.914 578.3 690.326 578.204 689.558 578.204ZM702.72 579.428C701.532 578.66 699.864 578.216 698.064 578.216C695.136 578.216 693.312 579.62 693.312 581.9C693.312 583.748 694.668 584.924 697.212 585.272L698.412 585.428C699.78 585.62 700.404 586.052 700.404 586.7C700.404 587.564 699.504 588.104 697.788 588.104C695.916 588.104 694.824 587.564 693.996 586.928L692.832 588.812C694.512 590.06 696.576 590.288 697.764 590.288C701.076 590.288 702.996 588.74 702.996 586.532C702.996 584.564 701.508 583.496 699 583.136L697.812 582.956C696.756 582.8 695.916 582.572 695.916 581.768C695.916 580.952 696.72 580.4 698.088 580.4C699.516 580.4 700.944 580.952 701.64 581.384L702.72 579.428Z" fill="#040531"/>
<path d="M483 559H712V553H483V559ZM711 558V604H717V558H711ZM712 603H483V609H712V603ZM484 604V558H478V604H484ZM483 603C483.552 603 484 603.448 484 604H478C478 606.761 480.239 609 483 609V603ZM711 604C711 603.448 711.448 603 712 603V609C714.761 609 717 606.761 717 604H711ZM712 559C711.448 559 711 558.552 711 558H717C717 555.239 714.761 553 712 553V559ZM483 553C480.239 553 478 555.239 478 558H484C484 558.552 483.552 559 483 559V553Z" fill="#B4E1E4"/>
<path d="M66 178C66 176.895 66.8954 176 68 176H250C251.105 176 252 176.895 252 178V254C252 255.105 251.105 256 250 256H68C66.8954 256 66 255.105 66 254V178Z" fill="#C5832E"/>
<path d="M84.2294 198.204C82.8254 198.204 81.6494 198.708 80.8934 199.8V198.504H78.4094V210H80.9174V203.676C80.9174 201.72 82.0574 200.592 83.6534 200.592C84.2654 200.592 85.0334 200.736 85.5614 201.012L86.1614 198.528C85.5854 198.3 84.9974 198.204 84.2294 198.204ZM93.1492 198.204C89.7652 198.204 87.4252 200.652 87.4252 204.252C87.4252 207.9 89.8612 210.3 93.3052 210.3C95.0452 210.3 96.6292 209.88 98.0332 208.68L96.7852 206.892C95.8372 207.648 94.6132 208.104 93.4612 208.104C91.8292 208.104 90.3772 207.24 90.0412 205.176H98.5372C98.5612 204.888 98.5852 204.564 98.5852 204.24C98.5732 200.652 96.3652 198.204 93.1492 198.204ZM93.1012 200.436C94.6972 200.436 95.7412 201.48 96.0172 203.268H90.0532C90.3172 201.588 91.3132 200.436 93.1012 200.436ZM112.066 198.504H109.402L106.006 207.396L102.61 198.504H99.8737L104.494 210H107.47L112.066 198.504ZM116.836 198.504H114.316V210H116.836V198.504ZM115.564 192.756C114.568 192.756 113.812 193.536 113.812 194.532C113.812 195.528 114.568 196.284 115.564 196.284C116.56 196.284 117.34 195.528 117.34 194.532C117.34 193.536 116.56 192.756 115.564 192.756ZM125.657 198.204C122.273 198.204 119.933 200.652 119.933 204.252C119.933 207.9 122.369 210.3 125.813 210.3C127.553 210.3 129.137 209.88 130.541 208.68L129.293 206.892C128.345 207.648 127.121 208.104 125.969 208.104C124.337 208.104 122.885 207.24 122.549 205.176H131.045C131.069 204.888 131.093 204.564 131.093 204.24C131.081 200.652 128.873 198.204 125.657 198.204ZM125.609 200.436C127.205 200.436 128.249 201.48 128.525 203.268H122.561C122.825 201.588 123.821 200.436 125.609 200.436ZM143.695 198.504H140.851L138.019 207.24L135.319 198.504H132.643L136.447 210H139.399L142.243 201.336L145.087 210H148.087L151.891 198.504H149.275L146.563 207.288L143.695 198.504ZM171.668 198.504H169.16V199.896C168.368 198.876 167.18 198.204 165.548 198.204C162.332 198.204 159.8 200.736 159.8 204.252C159.8 207.768 162.332 210.3 165.548 210.3C167.18 210.3 168.368 209.64 169.16 208.62V210H171.668V198.504ZM165.848 200.568C167.924 200.568 169.316 202.152 169.316 204.252C169.316 206.352 167.924 207.936 165.848 207.936C163.688 207.936 162.38 206.268 162.38 204.252C162.38 202.236 163.688 200.568 165.848 200.568ZM181.629 198.204C180.453 198.204 179.025 198.552 178.101 199.908V198.504H175.605V210H178.125V203.628C178.125 201.66 179.481 200.592 181.101 200.592C182.781 200.592 183.777 201.672 183.777 203.604V210H186.297V202.776C186.297 200.088 184.365 198.204 181.629 198.204ZM199.017 199.428C197.829 198.66 196.161 198.216 194.361 198.216C191.433 198.216 189.609 199.62 189.609 201.9C189.609 203.748 190.965 204.924 193.509 205.272L194.709 205.428C196.077 205.62 196.701 206.052 196.701 206.7C196.701 207.564 195.801 208.104 194.085 208.104C192.213 208.104 191.121 207.564 190.293 206.928L189.129 208.812C190.809 210.06 192.873 210.288 194.061 210.288C197.373 210.288 199.293 208.74 199.293 206.532C199.293 204.564 197.805 203.496 195.297 203.136L194.109 202.956C193.053 202.8 192.213 202.572 192.213 201.768C192.213 200.952 193.017 200.4 194.385 200.4C195.813 200.4 197.241 200.952 197.937 201.384L199.017 199.428ZM204.773 198.504H202.253V210H204.773V198.504ZM203.501 192.756C202.505 192.756 201.749 193.536 201.749 194.532C201.749 195.528 202.505 196.284 203.501 196.284C204.497 196.284 205.277 195.528 205.277 194.532C205.277 193.536 204.497 192.756 203.501 192.756ZM214.806 198.204C213.174 198.204 211.998 198.864 211.206 199.872V192.72H208.698V210H211.206V208.632C211.998 209.64 213.174 210.3 214.806 210.3C218.022 210.3 220.554 207.768 220.554 204.252C220.554 200.736 218.022 198.204 214.806 198.204ZM214.506 200.568C216.666 200.568 217.974 202.236 217.974 204.252C217.974 206.268 216.666 207.936 214.506 207.936C212.43 207.936 211.038 206.352 211.038 204.252C211.038 202.152 212.43 200.568 214.506 200.568ZM226.172 192.72H223.652V210H226.172V192.72ZM234.993 198.204C231.609 198.204 229.269 200.652 229.269 204.252C229.269 207.9 231.705 210.3 235.149 210.3C236.889 210.3 238.473 209.88 239.877 208.68L238.629 206.892C237.681 207.648 236.457 208.104 235.305 208.104C233.673 208.104 232.221 207.24 231.885 205.176H240.381C240.405 204.888 240.429 204.564 240.429 204.24C240.417 200.652 238.209 198.204 234.993 198.204ZM234.945 200.436C236.541 200.436 237.585 201.48 237.861 203.268H231.897C232.161 201.588 233.157 200.436 234.945 200.436ZM86.4925 228.504H82.5565V226.56C82.5565 225.42 83.0845 224.784 84.0565 224.784C84.8125 224.784 85.6165 225.06 86.2045 225.396L87.0925 223.284C86.2405 222.78 85.2325 222.42 83.8885 222.42C81.2005 222.42 80.0365 224.256 80.0365 226.56V228.504H77.7325V230.784H80.0365V240H82.5565V230.784H86.4925V228.504ZM99.586 228.504H97.066V234.9C97.066 237.12 95.83 237.936 94.258 237.936C92.686 237.936 91.45 237.12 91.45 234.9V228.504H88.93V235.128C88.93 238.788 91.558 240.3 94.258 240.3C96.946 240.3 99.586 238.788 99.586 235.128V228.504ZM109.418 228.204C108.242 228.204 106.814 228.552 105.89 229.908V228.504H103.394V240H105.914V233.628C105.914 231.66 107.27 230.592 108.89 230.592C110.57 230.592 111.566 231.672 111.566 233.604V240H114.086V232.776C114.086 230.088 112.154 228.204 109.418 228.204ZM122.822 228.204C119.606 228.204 117.074 230.736 117.074 234.252C117.074 237.768 119.606 240.3 122.822 240.3C124.454 240.3 125.642 239.64 126.434 238.62V240H128.942V222.72H126.434V229.896C125.642 228.876 124.454 228.204 122.822 228.204ZM123.122 230.568C125.198 230.568 126.59 232.152 126.59 234.252C126.59 236.352 125.198 237.936 123.122 237.936C120.962 237.936 119.654 236.268 119.654 234.252C119.654 232.236 120.962 230.568 123.122 230.568ZM143.918 228.504H141.41V229.896C140.618 228.876 139.43 228.204 137.798 228.204C134.582 228.204 132.05 230.736 132.05 234.252C132.05 237.768 134.582 240.3 137.798 240.3C139.43 240.3 140.618 239.64 141.41 238.62V240H143.918V228.504ZM138.098 230.568C140.174 230.568 141.566 232.152 141.566 234.252C141.566 236.352 140.174 237.936 138.098 237.936C135.938 237.936 134.63 236.268 134.63 234.252C134.63 232.236 135.938 230.568 138.098 230.568ZM162.051 228.204C160.623 228.204 158.847 228.612 157.851 230.256C157.059 228.984 155.631 228.204 153.879 228.204C152.703 228.204 151.275 228.552 150.351 229.908V228.504H147.855V240H150.375V233.628C150.375 231.66 151.731 230.592 153.351 230.592C155.031 230.592 156.027 231.672 156.027 233.604V240H158.547V233.628C158.547 231.66 159.903 230.592 161.523 230.592C163.203 230.592 164.199 231.672 164.199 233.604V240H166.719V232.776C166.719 230.088 164.787 228.204 162.051 228.204ZM175.438 228.204C172.054 228.204 169.714 230.652 169.714 234.252C169.714 237.9 172.15 240.3 175.594 240.3C177.334 240.3 178.918 239.88 180.322 238.68L179.074 236.892C178.126 237.648 176.902 238.104 175.75 238.104C174.118 238.104 172.666 237.24 172.33 235.176H180.826C180.85 234.888 180.874 234.564 180.874 234.24C180.862 230.652 178.654 228.204 175.438 228.204ZM175.39 230.436C176.986 230.436 178.03 231.48 178.306 233.268H172.342C172.606 231.588 173.602 230.436 175.39 230.436ZM189.996 228.204C188.82 228.204 187.392 228.552 186.468 229.908V228.504H183.972V240H186.492V233.628C186.492 231.66 187.848 230.592 189.468 230.592C191.148 230.592 192.144 231.672 192.144 233.604V240H194.664V232.776C194.664 230.088 192.732 228.204 189.996 228.204ZM206.199 228.504H201.795V225.024H199.275V228.504H196.983V230.784H199.275V235.836C199.275 238.896 200.799 240.3 203.403 240.3C204.843 240.3 206.007 239.784 206.931 239.16L205.935 237.156C205.251 237.588 204.399 237.936 203.619 237.936C202.611 237.936 201.795 237.336 201.795 235.788V230.784H206.199V228.504ZM220.301 228.504H217.793V229.896C217.001 228.876 215.813 228.204 214.181 228.204C210.965 228.204 208.433 230.736 208.433 234.252C208.433 237.768 210.965 240.3 214.181 240.3C215.813 240.3 217.001 239.64 217.793 238.62V240H220.301V228.504ZM214.481 230.568C216.557 230.568 217.949 232.152 217.949 234.252C217.949 236.352 216.557 237.936 214.481 237.936C212.321 237.936 211.013 236.268 211.013 234.252C211.013 232.236 212.321 230.568 214.481 230.568ZM226.758 222.72H224.238V240H226.758V222.72ZM239.587 229.428C238.399 228.66 236.731 228.216 234.931 228.216C232.003 228.216 230.179 229.62 230.179 231.9C230.179 233.748 231.535 234.924 234.079 235.272L235.279 235.428C236.647 235.62 237.271 236.052 237.271 236.7C237.271 237.564 236.371 238.104 234.655 238.104C232.783 238.104 231.691 237.564 230.863 236.928L229.699 238.812C231.379 240.06 233.443 240.288 234.631 240.288C237.943 240.288 239.863 238.74 239.863 236.532C239.863 234.564 238.375 233.496 235.867 233.136L234.679 232.956C233.623 232.8 232.783 232.572 232.783 231.768C232.783 230.952 233.587 230.4 234.955 230.4C236.383 230.4 237.811 230.952 238.507 231.384L239.587 229.428Z" fill="white"/>
<path d="M68 179H250V173H68V179ZM249 178V254H255V178H249ZM250 253H68V259H250V253ZM69 254V178H63V254H69ZM68 253C68.5523 253 69 253.448 69 254H63C63 256.761 65.2386 259 68 259V253ZM249 254C249 253.448 249.448 253 250 253V259C252.761 259 255 256.761 255 254H249ZM250 179C249.448 179 249 178.552 249 178H255C255 175.239 252.761 173 250 173V179ZM68 173C65.2386 173 63 175.239 63 178H69C69 178.552 68.5523 179 68 179V173Z" fill="#C5832E"/>
<path d="M79 5C79 3.89543 79.8954 3 81 3H237C238.105 3 239 3.89543 239 5V81C239 82.1046 238.105 83 237 83H81C79.8954 83 79 82.1046 79 81V5Z" fill="#C5832E"/>
<path d="M98.1112 25.204C96.4792 25.204 95.3032 25.864 94.5112 26.872V19.72H92.0032V37H94.5112V35.632C95.3032 36.64 96.4792 37.3 98.1112 37.3C101.327 37.3 103.859 34.768 103.859 31.252C103.859 27.736 101.327 25.204 98.1112 25.204ZM97.8112 27.568C99.9712 27.568 101.279 29.236 101.279 31.252C101.279 33.268 99.9712 34.936 97.8112 34.936C95.7352 34.936 94.3432 33.352 94.3432 31.252C94.3432 29.152 95.7352 27.568 97.8112 27.568ZM117.996 25.504H115.488V26.896C114.696 25.876 113.508 25.204 111.876 25.204C108.66 25.204 106.128 27.736 106.128 31.252C106.128 34.768 108.66 37.3 111.876 37.3C113.508 37.3 114.696 36.64 115.488 35.62V37H117.996V25.504ZM112.176 27.568C114.252 27.568 115.644 29.152 115.644 31.252C115.644 33.352 114.252 34.936 112.176 34.936C110.016 34.936 108.708 33.268 108.708 31.252C108.708 29.236 110.016 27.568 112.176 27.568ZM127.153 25.204C123.493 25.204 121.105 27.808 121.105 31.252C121.105 34.696 123.493 37.3 127.153 37.3C128.869 37.3 130.405 36.676 131.449 35.464L129.901 33.736C129.169 34.42 128.185 34.936 127.081 34.936C125.149 34.936 123.685 33.424 123.685 31.252C123.685 29.08 125.149 27.568 127.081 27.568C128.185 27.568 129.037 28 129.841 28.756L131.449 27.04C130.429 25.828 128.869 25.204 127.153 25.204ZM136.781 19.72H134.261V37H136.781V32.152H138.029L141.857 37H145.037L140.177 30.916L144.989 25.504H141.833L138.041 29.872H136.781V19.72ZM151.323 25.204C148.695 25.204 145.995 27.412 145.995 31.132C145.995 34.852 148.695 37.06 151.323 37.06C152.991 37.06 154.287 36.484 155.151 35.38V36.304C155.151 38.44 153.855 39.736 151.503 39.736C150.099 39.736 148.767 39.28 147.603 38.572L146.691 40.696C147.903 41.56 149.787 42.028 151.503 42.028C155.343 42.028 157.671 39.808 157.671 36.196V25.504H155.151V26.884C154.287 25.792 152.991 25.204 151.323 25.204ZM151.971 27.568C153.999 27.568 155.367 29.116 155.367 31.132C155.367 33.148 153.999 34.696 151.971 34.696C149.847 34.696 148.575 33.064 148.575 31.132C148.575 29.188 149.847 27.568 151.971 27.568ZM167.433 25.204C166.029 25.204 164.853 25.708 164.097 26.8V25.504H161.613V37H164.121V30.676C164.121 28.72 165.261 27.592 166.857 27.592C167.469 27.592 168.237 27.736 168.765 28.012L169.365 25.528C168.789 25.3 168.201 25.204 167.433 25.204ZM176.808 25.204C173.256 25.204 170.628 27.808 170.628 31.252C170.628 34.696 173.256 37.3 176.808 37.3C180.36 37.3 183 34.696 183 31.252C183 27.808 180.36 25.204 176.808 25.204ZM176.808 27.568C178.86 27.568 180.42 29.08 180.42 31.252C180.42 33.424 178.86 34.936 176.808 34.936C174.756 34.936 173.208 33.424 173.208 31.252C173.208 29.08 174.756 27.568 176.808 27.568ZM196.641 25.504H194.121V31.9C194.121 34.12 192.885 34.936 191.313 34.936C189.741 34.936 188.505 34.12 188.505 31.9V25.504H185.985V32.128C185.985 35.788 188.613 37.3 191.313 37.3C194.001 37.3 196.641 35.788 196.641 32.128V25.504ZM206.472 25.204C205.296 25.204 203.868 25.552 202.944 26.908V25.504H200.448V37H202.968V30.628C202.968 28.66 204.324 27.592 205.944 27.592C207.624 27.592 208.62 28.672 208.62 30.604V37H211.14V29.776C211.14 27.088 209.208 25.204 206.472 25.204ZM219.876 25.204C216.66 25.204 214.128 27.736 214.128 31.252C214.128 34.768 216.66 37.3 219.876 37.3C221.508 37.3 222.696 36.64 223.488 35.62V37H225.996V19.72H223.488V26.896C222.696 25.876 221.508 25.204 219.876 25.204ZM220.176 27.568C222.252 27.568 223.644 29.152 223.644 31.252C223.644 33.352 222.252 34.936 220.176 34.936C218.016 34.936 216.708 33.268 216.708 31.252C216.708 29.236 218.016 27.568 220.176 27.568ZM93.6794 55.504H91.1594V67H93.6794V55.504ZM92.4074 49.756C91.4114 49.756 90.6554 50.536 90.6554 51.532C90.6554 52.528 91.4114 53.284 92.4074 53.284C93.4034 53.284 94.1834 52.528 94.1834 51.532C94.1834 50.536 93.4034 49.756 92.4074 49.756ZM103.629 55.204C102.453 55.204 101.025 55.552 100.101 56.908V55.504H97.6047V67H100.125V60.628C100.125 58.66 101.481 57.592 103.101 57.592C104.781 57.592 105.777 58.672 105.777 60.604V67H108.297V59.776C108.297 57.088 106.365 55.204 103.629 55.204ZM119.258 55.504H115.322V53.56C115.322 52.42 115.85 51.784 116.822 51.784C117.578 51.784 118.382 52.06 118.97 52.396L119.858 50.284C119.006 49.78 117.998 49.42 116.654 49.42C113.966 49.42 112.802 51.256 112.802 53.56V55.504H110.498V57.784H112.802V67H115.322V57.784H119.258V55.504ZM127.004 55.204C123.452 55.204 120.824 57.808 120.824 61.252C120.824 64.696 123.452 67.3 127.004 67.3C130.556 67.3 133.196 64.696 133.196 61.252C133.196 57.808 130.556 55.204 127.004 55.204ZM127.004 57.568C129.056 57.568 130.616 59.08 130.616 61.252C130.616 63.424 129.056 64.936 127.004 64.936C124.952 64.936 123.404 63.424 123.404 61.252C123.404 59.08 124.952 57.568 127.004 57.568ZM142.12 55.204C140.716 55.204 139.54 55.708 138.784 56.8V55.504H136.3V67H138.808V60.676C138.808 58.72 139.948 57.592 141.544 57.592C142.156 57.592 142.924 57.736 143.452 58.012L144.052 55.528C143.476 55.3 142.888 55.204 142.12 55.204ZM160.809 55.204C159.381 55.204 157.605 55.612 156.609 57.256C155.817 55.984 154.389 55.204 152.637 55.204C151.461 55.204 150.033 55.552 149.109 56.908V55.504H146.613V67H149.133V60.628C149.133 58.66 150.489 57.592 152.109 57.592C153.789 57.592 154.785 58.672 154.785 60.604V67H157.305V60.628C157.305 58.66 158.661 57.592 160.281 57.592C161.961 57.592 162.957 58.672 162.957 60.604V67H165.477V59.776C165.477 57.088 163.545 55.204 160.809 55.204ZM180.34 55.504H177.832V56.896C177.04 55.876 175.852 55.204 174.22 55.204C171.004 55.204 168.472 57.736 168.472 61.252C168.472 64.768 171.004 67.3 174.22 67.3C175.852 67.3 177.04 66.64 177.832 65.62V67H180.34V55.504ZM174.52 57.568C176.596 57.568 177.988 59.152 177.988 61.252C177.988 63.352 176.596 64.936 174.52 64.936C172.36 64.936 171.052 63.268 171.052 61.252C171.052 59.236 172.36 57.568 174.52 57.568ZM192.113 55.504H187.709V52.024H185.189V55.504H182.897V57.784H185.189V62.836C185.189 65.896 186.713 67.3 189.317 67.3C190.757 67.3 191.921 66.784 192.845 66.16L191.849 64.156C191.165 64.588 190.313 64.936 189.533 64.936C188.525 64.936 187.709 64.336 187.709 62.788V57.784H192.113V55.504ZM197.695 55.504H195.175V67H197.695V55.504ZM196.423 49.756C195.427 49.756 194.671 50.536 194.671 51.532C194.671 52.528 195.427 53.284 196.423 53.284C197.419 53.284 198.199 52.528 198.199 51.532C198.199 50.536 197.419 49.756 196.423 49.756ZM206.972 55.204C203.42 55.204 200.792 57.808 200.792 61.252C200.792 64.696 203.42 67.3 206.972 67.3C210.524 67.3 213.164 64.696 213.164 61.252C213.164 57.808 210.524 55.204 206.972 55.204ZM206.972 57.568C209.024 57.568 210.584 59.08 210.584 61.252C210.584 63.424 209.024 64.936 206.972 64.936C204.92 64.936 203.372 63.424 203.372 61.252C203.372 59.08 204.92 57.568 206.972 57.568ZM222.293 55.204C221.117 55.204 219.689 55.552 218.765 56.908V55.504H216.269V67H218.789V60.628C218.789 58.66 220.145 57.592 221.765 57.592C223.445 57.592 224.441 58.672 224.441 60.604V67H226.961V59.776C226.961 57.088 225.029 55.204 222.293 55.204Z" fill="white"/>
<path d="M81 6H237V0H81V6ZM236 5V81H242V5H236ZM237 80H81V86H237V80ZM82 81V5H76V81H82ZM81 80C81.5523 80 82 80.4477 82 81H76C76 83.7614 78.2386 86 81 86V80ZM236 81C236 80.4477 236.448 80 237 80V86C239.761 86 242 83.7614 242 81H236ZM237 6C236.448 6 236 5.55228 236 5H242C242 2.23858 239.761 0 237 0V6ZM81 0C78.2386 0 76 2.23857 76 5H82C82 5.55229 81.5523 6 81 6V0Z" fill="#C5832E"/>
<circle cx="15" cy="311" r="14" fill="#C5832E" stroke="#C5832E" stroke-width="2"/>
<path d="M14.5163 302.912C11.8763 302.912 10.0403 304.052 9.08025 305.552L10.9523 307.148C11.6003 306.212 12.7763 305.336 14.3483 305.336C16.0883 305.336 17.5163 306.236 17.5163 307.844C17.5163 309.524 16.0523 310.34 14.2403 310.34H12.2243V312.728H14.2523C16.2563 312.728 17.8883 313.616 17.8883 315.308C17.8883 317.036 16.4483 317.864 14.6123 317.864C13.0883 317.864 11.5523 317.228 10.5563 316.148L8.88825 317.888C10.1243 319.4 12.1763 320.288 14.6723 320.288C17.7203 320.288 20.6123 318.704 20.6123 315.428C20.6123 313.592 19.4363 312.224 17.6723 311.528C19.2203 310.808 20.2283 309.5 20.2283 307.712C20.2283 304.82 17.9363 302.912 14.5163 302.912Z" fill="white"/>
<path d="M66 273C66 271.895 66.8954 271 68 271H314C315.105 271 316 271.895 316 273V349C316 350.105 315.105 351 314 351H68C66.8954 351 66 350.105 66 349V273Z" fill="#C5832E"/>
<path d="M84.2068 293.204C83.0308 293.204 81.6028 293.552 80.6788 294.908V293.504H78.1828V305H80.7028V298.628C80.7028 296.66 82.0588 295.592 83.6788 295.592C85.3588 295.592 86.3548 296.672 86.3548 298.604V305H88.8748V297.776C88.8748 295.088 86.9428 293.204 84.2068 293.204ZM103.731 293.504H101.223V294.896C100.431 293.876 99.2427 293.204 97.6107 293.204C94.3947 293.204 91.8627 295.736 91.8627 299.252C91.8627 302.768 94.3947 305.3 97.6107 305.3C99.2427 305.3 100.431 304.64 101.223 303.62V305H103.731V293.504ZM97.9107 295.568C99.9867 295.568 101.379 297.152 101.379 299.252C101.379 301.352 99.9867 302.936 97.9107 302.936C95.7507 302.936 94.4427 301.268 94.4427 299.252C94.4427 297.236 95.7507 295.568 97.9107 295.568ZM118.167 293.504H115.503L112.107 302.396L108.711 293.504H105.975L110.595 305H113.571L118.167 293.504ZM122.937 293.504H120.417V305H122.937V293.504ZM121.665 287.756C120.669 287.756 119.913 288.536 119.913 289.532C119.913 290.528 120.669 291.284 121.665 291.284C122.661 291.284 123.441 290.528 123.441 289.532C123.441 288.536 122.661 287.756 121.665 287.756ZM131.363 293.204C128.735 293.204 126.035 295.412 126.035 299.132C126.035 302.852 128.735 305.06 131.363 305.06C133.031 305.06 134.327 304.484 135.191 303.38V304.304C135.191 306.44 133.895 307.736 131.543 307.736C130.139 307.736 128.807 307.28 127.643 306.572L126.731 308.696C127.943 309.56 129.827 310.028 131.543 310.028C135.383 310.028 137.711 307.808 137.711 304.196V293.504H135.191V294.884C134.327 293.792 133.031 293.204 131.363 293.204ZM132.011 295.568C134.039 295.568 135.407 297.116 135.407 299.132C135.407 301.148 134.039 302.696 132.011 302.696C129.887 302.696 128.615 301.064 128.615 299.132C128.615 297.188 129.887 295.568 132.011 295.568ZM152.692 293.504H150.184V294.896C149.392 293.876 148.204 293.204 146.572 293.204C143.356 293.204 140.824 295.736 140.824 299.252C140.824 302.768 143.356 305.3 146.572 305.3C148.204 305.3 149.392 304.64 150.184 303.62V305H152.692V293.504ZM146.872 295.568C148.948 295.568 150.34 297.152 150.34 299.252C150.34 301.352 148.948 302.936 146.872 302.936C144.712 302.936 143.404 301.268 143.404 299.252C143.404 297.236 144.712 295.568 146.872 295.568ZM164.464 293.504H160.06V290.024H157.54V293.504H155.248V295.784H157.54V300.836C157.54 303.896 159.064 305.3 161.668 305.3C163.108 305.3 164.272 304.784 165.196 304.16L164.2 302.156C163.516 302.588 162.664 302.936 161.884 302.936C160.876 302.936 160.06 302.336 160.06 300.788V295.784H164.464V293.504ZM172.423 293.204C169.039 293.204 166.699 295.652 166.699 299.252C166.699 302.9 169.135 305.3 172.579 305.3C174.319 305.3 175.903 304.88 177.307 303.68L176.059 301.892C175.111 302.648 173.887 303.104 172.735 303.104C171.103 303.104 169.651 302.24 169.315 300.176H177.811C177.835 299.888 177.859 299.564 177.859 299.24C177.847 295.652 175.639 293.204 172.423 293.204ZM172.375 295.436C173.971 295.436 175.015 296.48 175.291 298.268H169.327C169.591 296.588 170.587 295.436 172.375 295.436ZM192.645 293.204C188.985 293.204 186.597 295.808 186.597 299.252C186.597 302.696 188.985 305.3 192.645 305.3C194.361 305.3 195.897 304.676 196.941 303.464L195.393 301.736C194.661 302.42 193.677 302.936 192.573 302.936C190.641 302.936 189.177 301.424 189.177 299.252C189.177 297.08 190.641 295.568 192.573 295.568C193.677 295.568 194.529 296 195.333 296.756L196.941 295.04C195.921 293.828 194.361 293.204 192.645 293.204ZM205.861 293.204C204.229 293.204 203.053 293.864 202.261 294.872V293.504H199.753V309.8H202.261V303.632C203.053 304.64 204.229 305.3 205.861 305.3C209.077 305.3 211.609 302.768 211.609 299.252C211.609 295.736 209.077 293.204 205.861 293.204ZM205.561 295.568C207.721 295.568 209.029 297.236 209.029 299.252C209.029 301.268 207.721 302.936 205.561 302.936C203.485 302.936 202.093 301.352 202.093 299.252C202.093 297.152 203.485 295.568 205.561 295.568ZM221.294 297.464H214.334V299.744H221.294V297.464ZM235.895 293.504H233.387V294.896C232.595 293.876 231.407 293.204 229.775 293.204C226.559 293.204 224.027 295.736 224.027 299.252C224.027 302.768 226.559 305.3 229.775 305.3C231.407 305.3 232.595 304.64 233.387 303.62V305H235.895V293.504ZM230.075 295.568C232.151 295.568 233.543 297.152 233.543 299.252C233.543 301.352 232.151 302.936 230.075 302.936C227.915 302.936 226.607 301.268 226.607 299.252C226.607 297.236 227.915 295.568 230.075 295.568ZM245.855 293.204C244.679 293.204 243.251 293.552 242.327 294.908V293.504H239.831V305H242.351V298.628C242.351 296.66 243.707 295.592 245.327 295.592C247.007 295.592 248.003 296.672 248.003 298.604V305H250.523V297.776C250.523 295.088 248.591 293.204 245.855 293.204ZM263.243 294.428C262.055 293.66 260.387 293.216 258.587 293.216C255.659 293.216 253.835 294.62 253.835 296.9C253.835 298.748 255.191 299.924 257.735 300.272L258.935 300.428C260.303 300.62 260.927 301.052 260.927 301.7C260.927 302.564 260.027 303.104 258.311 303.104C256.439 303.104 255.347 302.564 254.519 301.928L253.355 303.812C255.035 305.06 257.099 305.288 258.287 305.288C261.599 305.288 263.519 303.74 263.519 301.532C263.519 299.564 262.031 298.496 259.523 298.136L258.335 297.956C257.279 297.8 256.439 297.572 256.439 296.768C256.439 295.952 257.243 295.4 258.611 295.4C260.039 295.4 261.467 295.952 262.163 296.384L263.243 294.428ZM269 293.504H266.48V305H269V293.504ZM267.728 287.756C266.732 287.756 265.976 288.536 265.976 289.532C265.976 290.528 266.732 291.284 267.728 291.284C268.724 291.284 269.504 290.528 269.504 289.532C269.504 288.536 268.724 287.756 267.728 287.756ZM279.033 293.204C277.401 293.204 276.225 293.864 275.433 294.872V287.72H272.925V305H275.433V303.632C276.225 304.64 277.401 305.3 279.033 305.3C282.249 305.3 284.781 302.768 284.781 299.252C284.781 295.736 282.249 293.204 279.033 293.204ZM278.733 295.568C280.893 295.568 282.201 297.236 282.201 299.252C282.201 301.268 280.893 302.936 278.733 302.936C276.657 302.936 275.265 301.352 275.265 299.252C275.265 297.152 276.657 295.568 278.733 295.568ZM290.398 287.72H287.878V305H290.398V287.72ZM299.219 293.204C295.835 293.204 293.495 295.652 293.495 299.252C293.495 302.9 295.931 305.3 299.375 305.3C301.115 305.3 302.699 304.88 304.103 303.68L302.855 301.892C301.907 302.648 300.683 303.104 299.531 303.104C297.899 303.104 296.447 302.24 296.111 300.176H304.607C304.631 299.888 304.655 299.564 304.655 299.24C304.643 295.652 302.435 293.204 299.219 293.204ZM299.171 295.436C300.767 295.436 301.811 296.48 302.087 298.268H296.123C296.387 296.588 297.383 295.436 299.171 295.436ZM157.697 323.204C156.065 323.204 154.889 323.864 154.097 324.872V323.504H151.589V339.8H154.097V333.632C154.889 334.64 156.065 335.3 157.697 335.3C160.913 335.3 163.445 332.768 163.445 329.252C163.445 325.736 160.913 323.204 157.697 323.204ZM157.397 325.568C159.557 325.568 160.865 327.236 160.865 329.252C160.865 331.268 159.557 332.936 157.397 332.936C155.321 332.936 153.929 331.352 153.929 329.252C153.929 327.152 155.321 325.568 157.397 325.568ZM172.362 323.204C170.958 323.204 169.782 323.708 169.026 324.8V323.504H166.542V335H169.05V328.676C169.05 326.72 170.19 325.592 171.786 325.592C172.398 325.592 173.166 325.736 173.694 326.012L174.294 323.528C173.718 323.3 173.13 323.204 172.362 323.204ZM181.738 323.204C178.186 323.204 175.558 325.808 175.558 329.252C175.558 332.696 178.186 335.3 181.738 335.3C185.29 335.3 187.93 332.696 187.93 329.252C187.93 325.808 185.29 323.204 181.738 323.204ZM181.738 325.568C183.79 325.568 185.35 327.08 185.35 329.252C185.35 331.424 183.79 332.936 181.738 332.936C179.686 332.936 178.138 331.424 178.138 329.252C178.138 327.08 179.686 325.568 181.738 325.568ZM193.626 323.504H191.106V336.296C191.106 337.28 190.626 337.664 190.026 337.664C189.714 337.664 189.39 337.604 189.102 337.496L188.514 339.68C188.97 339.896 189.666 340.028 190.254 340.028C192.234 340.028 193.626 338.78 193.626 336.416V323.504ZM192.342 317.756C191.346 317.756 190.59 318.536 190.59 319.532C190.59 320.528 191.346 321.284 192.342 321.284C193.338 321.284 194.118 320.528 194.118 319.532C194.118 318.536 193.338 317.756 192.342 317.756ZM202.469 323.204C199.085 323.204 196.745 325.652 196.745 329.252C196.745 332.9 199.181 335.3 202.625 335.3C204.365 335.3 205.949 334.88 207.353 333.68L206.105 331.892C205.157 332.648 203.933 333.104 202.781 333.104C201.149 333.104 199.697 332.24 199.361 330.176H207.857C207.881 329.888 207.905 329.564 207.905 329.24C207.893 325.652 205.685 323.204 202.469 323.204ZM202.421 325.436C204.017 325.436 205.061 326.48 205.337 328.268H199.373C199.637 326.588 200.633 325.436 202.421 325.436ZM216.223 323.204C212.563 323.204 210.175 325.808 210.175 329.252C210.175 332.696 212.563 335.3 216.223 335.3C217.939 335.3 219.475 334.676 220.519 333.464L218.971 331.736C218.239 332.42 217.255 332.936 216.151 332.936C214.219 332.936 212.755 331.424 212.755 329.252C212.755 327.08 214.219 325.568 216.151 325.568C217.255 325.568 218.107 326 218.911 326.756L220.519 325.04C219.499 323.828 217.939 323.204 216.223 323.204ZM231.284 323.504H226.88V320.024H224.36V323.504H222.068V325.784H224.36V330.836C224.36 333.896 225.884 335.3 228.488 335.3C229.928 335.3 231.092 334.784 232.016 334.16L231.02 332.156C230.336 332.588 229.484 332.936 228.704 332.936C227.696 332.936 226.88 332.336 226.88 330.788V325.784H231.284V323.504Z" fill="white"/>
<path d="M68 274H314V268H68V274ZM313 273V349H319V273H313ZM314 348H68V354H314V348ZM69 349V273H63V349H69ZM68 348C68.5523 348 69 348.448 69 349H63C63 351.761 65.2386 354 68 354V348ZM313 349C313 348.448 313.448 348 314 348V354C316.761 354 319 351.761 319 349H313ZM314 274C313.448 274 313 273.552 313 273H319C319 270.239 316.761 268 314 268V274ZM68 268C65.2386 268 63 270.239 63 273H69C69 273.552 68.5523 274 68 274V268Z" fill="#C5832E"/>
</svg>
